<mxfile host="app.diagrams.net" modified="2024-05-03T08:31:47.956Z" agent="Mozilla/5.0 (Windows NT 10.0; Win64; x64) AppleWebKit/537.36 (KHTML, like Gecko) Chrome/124.0.0.0 Safari/537.36 Edg/124.0.0.0" etag="ApnfAUPrM40qInsSyvp8" version="24.3.1" type="github">
  <diagram name="第 1 页" id="2Jckgy7rX5EldpOdC_vK">
    <mxGraphModel dx="2084" dy="714" grid="1" gridSize="10" guides="1" tooltips="1" connect="1" arrows="1" fold="1" page="1" pageScale="1" pageWidth="827" pageHeight="1169" math="0" shadow="0">
      <root>
        <mxCell id="0" />
        <mxCell id="1" parent="0" />
        <mxCell id="voBeTEnPB6DL6gdvr357-101" value="" style="shape=flexArrow;endArrow=classic;startArrow=classic;html=1;rounded=0;entryX=0.653;entryY=0.974;entryDx=0;entryDy=0;entryPerimeter=0;exitX=0.945;exitY=0.575;exitDx=0;exitDy=0;exitPerimeter=0;" edge="1" parent="1" source="voBeTEnPB6DL6gdvr357-58">
          <mxGeometry width="100" height="100" relative="1" as="geometry">
            <mxPoint x="467.9999999999998" y="261.85" as="sourcePoint" />
            <mxPoint x="468.73500000000035" y="203.0020000000001" as="targetPoint" />
          </mxGeometry>
        </mxCell>
        <mxCell id="voBeTEnPB6DL6gdvr357-1" value="" style="rounded=1;whiteSpace=wrap;html=1;fillColor=#d5e8d4;strokeColor=#82b366;shadow=0;sketch=1;curveFitting=1;jiggle=2;" vertex="1" parent="1">
          <mxGeometry y="130" width="505" height="73" as="geometry" />
        </mxCell>
        <mxCell id="voBeTEnPB6DL6gdvr357-3" value="User" style="shape=umlActor;verticalLabelPosition=bottom;verticalAlign=top;html=1;outlineConnect=0;" vertex="1" parent="1">
          <mxGeometry x="55.5" y="140" width="20" height="40" as="geometry" />
        </mxCell>
        <mxCell id="voBeTEnPB6DL6gdvr357-4" value="User" style="shape=umlActor;verticalLabelPosition=bottom;verticalAlign=top;html=1;outlineConnect=0;" vertex="1" parent="1">
          <mxGeometry x="161" y="140" width="20" height="40" as="geometry" />
        </mxCell>
        <object label="User" id="voBeTEnPB6DL6gdvr357-5">
          <mxCell style="shape=umlActor;verticalLabelPosition=bottom;verticalAlign=top;html=1;outlineConnect=0;" vertex="1" parent="1">
            <mxGeometry x="281.25" y="140" width="21" height="40" as="geometry" />
          </mxCell>
        </object>
        <object label="User" id="voBeTEnPB6DL6gdvr357-13">
          <mxCell style="shape=umlActor;verticalLabelPosition=bottom;verticalAlign=top;html=1;outlineConnect=0;" vertex="1" parent="1">
            <mxGeometry x="403" y="140" width="22" height="40" as="geometry" />
          </mxCell>
        </object>
        <mxCell id="voBeTEnPB6DL6gdvr357-18" value="React + ant design + Echarts" style="rounded=1;whiteSpace=wrap;html=1;fillColor=#e1d5e7;strokeColor=#9673a6;shadow=0;sketch=1;curveFitting=1;jiggle=2;" vertex="1" parent="1">
          <mxGeometry x="-1" y="310" width="510" height="70" as="geometry" />
        </mxCell>
        <mxCell id="voBeTEnPB6DL6gdvr357-19" value="Web" style="text;html=1;align=center;verticalAlign=middle;resizable=0;points=[];autosize=1;strokeColor=none;fillColor=none;fontStyle=3" vertex="1" parent="1">
          <mxGeometry x="9.5" y="308" width="50" height="30" as="geometry" />
        </mxCell>
        <mxCell id="voBeTEnPB6DL6gdvr357-31" value="" style="rounded=1;whiteSpace=wrap;html=1;fillColor=#dae8fc;strokeColor=#6c8ebf;glass=0;sketch=1;curveFitting=1;jiggle=2;" vertex="1" parent="1">
          <mxGeometry x="1" y="390" width="549" height="550" as="geometry" />
        </mxCell>
        <mxCell id="voBeTEnPB6DL6gdvr357-32" value="" style="rounded=1;whiteSpace=wrap;html=1;fillColor=#ffe6cc;strokeColor=#d79b00;shadow=1;" vertex="1" parent="1">
          <mxGeometry x="18" y="418" width="442" height="90" as="geometry" />
        </mxCell>
        <mxCell id="voBeTEnPB6DL6gdvr357-33" value="controller" style="text;html=1;align=center;verticalAlign=middle;resizable=0;points=[];autosize=1;strokeColor=none;fillColor=none;fontStyle=3" vertex="1" parent="1">
          <mxGeometry x="22" y="418" width="70" height="30" as="geometry" />
        </mxCell>
        <mxCell id="voBeTEnPB6DL6gdvr357-35" value="User" style="rounded=1;whiteSpace=wrap;html=1;fillColor=#1ba1e2;fontColor=#ffffff;strokeColor=#006EAF;" vertex="1" parent="1">
          <mxGeometry x="49.5" y="446.5" width="68" height="42.5" as="geometry" />
        </mxCell>
        <mxCell id="voBeTEnPB6DL6gdvr357-36" value="Chart" style="rounded=1;whiteSpace=wrap;html=1;fillColor=#1ba1e2;fontColor=#ffffff;strokeColor=#006EAF;" vertex="1" parent="1">
          <mxGeometry x="150" y="446.5" width="68" height="42.5" as="geometry" />
        </mxCell>
        <mxCell id="voBeTEnPB6DL6gdvr357-37" value="Score" style="rounded=1;whiteSpace=wrap;html=1;fillColor=#1ba1e2;fontColor=#ffffff;strokeColor=#006EAF;" vertex="1" parent="1">
          <mxGeometry x="257.75" y="446.5" width="68" height="42.5" as="geometry" />
        </mxCell>
        <mxCell id="voBeTEnPB6DL6gdvr357-39" value="全局响应拦截器" style="rounded=1;whiteSpace=wrap;html=1;fillColor=#f8cecc;strokeColor=#b85450;glass=0;shadow=1;" vertex="1" parent="1">
          <mxGeometry x="10" y="520" width="520" height="56" as="geometry" />
        </mxCell>
        <mxCell id="voBeTEnPB6DL6gdvr357-41" value="Captcha" style="rounded=1;whiteSpace=wrap;html=1;fillColor=#1ba1e2;fontColor=#ffffff;strokeColor=#006EAF;" vertex="1" parent="1">
          <mxGeometry x="357" y="446.5" width="68" height="42" as="geometry" />
        </mxCell>
        <mxCell id="voBeTEnPB6DL6gdvr357-45" value="" style="rounded=1;whiteSpace=wrap;html=1;shadow=1;fillColor=#f5f5f5;fontColor=#333333;strokeColor=#666666;" vertex="1" parent="1">
          <mxGeometry x="13.5" y="585" width="386.5" height="145" as="geometry" />
        </mxCell>
        <mxCell id="voBeTEnPB6DL6gdvr357-46" value="service" style="text;html=1;align=center;verticalAlign=middle;resizable=0;points=[];autosize=1;strokeColor=none;fillColor=none;fontStyle=3" vertex="1" parent="1">
          <mxGeometry x="21" y="583" width="60" height="30" as="geometry" />
        </mxCell>
        <mxCell id="voBeTEnPB6DL6gdvr357-47" value="User" style="rounded=1;whiteSpace=wrap;html=1;fillColor=#1ba1e2;fontColor=#ffffff;strokeColor=#006EAF;" vertex="1" parent="1">
          <mxGeometry x="25.5" y="613" width="68" height="42.5" as="geometry" />
        </mxCell>
        <mxCell id="voBeTEnPB6DL6gdvr357-48" value="Chart" style="rounded=1;whiteSpace=wrap;html=1;fillColor=#1ba1e2;fontColor=#ffffff;strokeColor=#006EAF;" vertex="1" parent="1">
          <mxGeometry x="305.51" y="613" width="68" height="42.5" as="geometry" />
        </mxCell>
        <mxCell id="voBeTEnPB6DL6gdvr357-49" value="Score" style="rounded=1;whiteSpace=wrap;html=1;fillColor=#1ba1e2;fontColor=#ffffff;strokeColor=#006EAF;" vertex="1" parent="1">
          <mxGeometry x="26.5" y="670.5" width="68" height="42.5" as="geometry" />
        </mxCell>
        <mxCell id="voBeTEnPB6DL6gdvr357-50" value="Avatar" style="rounded=1;whiteSpace=wrap;html=1;fillColor=#1ba1e2;fontColor=#ffffff;strokeColor=#006EAF;" vertex="1" parent="1">
          <mxGeometry x="128" y="613" width="68" height="42.5" as="geometry" />
        </mxCell>
        <mxCell id="voBeTEnPB6DL6gdvr357-51" value="SparkAi" style="rounded=1;whiteSpace=wrap;html=1;fillColor=#1ba1e2;fontColor=#ffffff;strokeColor=#006EAF;" vertex="1" parent="1">
          <mxGeometry x="225" y="613" width="68" height="42.5" as="geometry" />
        </mxCell>
        <mxCell id="voBeTEnPB6DL6gdvr357-52" value="Email" style="rounded=1;whiteSpace=wrap;html=1;fillColor=#1ba1e2;fontColor=#ffffff;strokeColor=#006EAF;" vertex="1" parent="1">
          <mxGeometry x="225" y="671" width="68" height="42.5" as="geometry" />
        </mxCell>
        <mxCell id="voBeTEnPB6DL6gdvr357-58" value="NGINX反向代理" style="ellipse;shape=cloud;whiteSpace=wrap;html=1;fillColor=#f5f5f5;fontColor=#333333;strokeColor=#666666;shadow=0;sketch=1;curveFitting=1;jiggle=2;" vertex="1" parent="1">
          <mxGeometry x="-13" y="203" width="510" height="107" as="geometry" />
        </mxCell>
        <mxCell id="voBeTEnPB6DL6gdvr357-59" value="网关" style="text;html=1;align=center;verticalAlign=middle;resizable=0;points=[];autosize=1;strokeColor=none;fillColor=none;fontStyle=3" vertex="1" parent="1">
          <mxGeometry x="74.5" y="230" width="50" height="30" as="geometry" />
        </mxCell>
        <mxCell id="voBeTEnPB6DL6gdvr357-62" value="" style="rounded=1;whiteSpace=wrap;html=1;fillColor=#fff2cc;strokeColor=#d6b656;shadow=1;" vertex="1" parent="1">
          <mxGeometry x="23" y="742.1" width="157" height="97.9" as="geometry" />
        </mxCell>
        <mxCell id="voBeTEnPB6DL6gdvr357-63" value="User" style="rounded=1;whiteSpace=wrap;html=1;fillColor=#1ba1e2;fontColor=#ffffff;strokeColor=#006EAF;" vertex="1" parent="1">
          <mxGeometry x="30.499999999999996" y="768.1" width="52" height="26" as="geometry" />
        </mxCell>
        <mxCell id="voBeTEnPB6DL6gdvr357-64" value="Chart" style="rounded=1;whiteSpace=wrap;html=1;fillColor=#1ba1e2;fontColor=#ffffff;strokeColor=#006EAF;" vertex="1" parent="1">
          <mxGeometry x="117.5" y="769.48" width="48.47" height="26" as="geometry" />
        </mxCell>
        <mxCell id="voBeTEnPB6DL6gdvr357-65" value="Score" style="rounded=1;whiteSpace=wrap;html=1;fillColor=#1ba1e2;fontColor=#ffffff;strokeColor=#006EAF;" vertex="1" parent="1">
          <mxGeometry x="74.5" y="804.8800000000001" width="58" height="29.81" as="geometry" />
        </mxCell>
        <mxCell id="voBeTEnPB6DL6gdvr357-66" value="entity" style="text;html=1;align=center;verticalAlign=middle;resizable=0;points=[];autosize=1;strokeColor=none;fillColor=none;fontStyle=3" vertex="1" parent="1">
          <mxGeometry x="26.5" y="740.1" width="50" height="30" as="geometry" />
        </mxCell>
        <mxCell id="voBeTEnPB6DL6gdvr357-77" value="Captcha" style="rounded=1;whiteSpace=wrap;html=1;fillColor=#1ba1e2;fontColor=#ffffff;strokeColor=#006EAF;" vertex="1" parent="1">
          <mxGeometry x="128" y="671" width="68" height="42" as="geometry" />
        </mxCell>
        <mxCell id="voBeTEnPB6DL6gdvr357-85" value="" style="shape=image;verticalLabelPosition=bottom;labelBackgroundColor=default;verticalAlign=top;aspect=fixed;imageAspect=0;image=data:image/png,iVBORw0KGgoAAAANSUhEUgAAAgYAAAGtCAYAAABtDLwQAAAgAElEQVR4Aey9CbgdVZX236LMQ+aBJEBIQgYyjwwJQxJCEhIICSGCYZ4HoRGiICqCtjKIA07dan+2tsxIo21/aqPdSIMgaPvhbDsCDaKItnYj7bz+/3fdejer9qk6p6rOufeeYd3nqWff3LFq1c3Zv3rXu9b6C/E3j4BHwCPgEfAIeAQ8AkkE/sIj4RHwCHgEPAIeAY+AR4ARcDBgJHz1CHgEPAIeAY+AR0AcDPyPwCPgEfAIeAQ8Ah6BEAEHgxAKf8cj4BHwCHgEPAIeAQcD/xvwCHgEPAIeAY+ARyBEwMEghMLf8Qh4BDwCHgGPgEfAwcD/BjwCHgGPgEfAI+ARCBFwMAih8Hc8Ah4Bj4BHwCPgEXAw8L8Bj4BHwCPgEfAIeARCBBwMQij8HY+AR8Aj4BHwCHgEHAz8b8Aj4BHwCHgEPAIegRABB4MQCn/HI+AR8Ah4BDwCHgEHA/8b8Ah4BDwCHgGPgEcgRMDBIITC3/EIeAQ8Ah4Bj4BHwMHA/wY8Ah4Bj4BHwCPgEQgRcDAIofB3PAIeAY+AR8Aj4BFwMPC/AY+AR8Aj4BHwCHgEQgQcDEIo/B2PgEfAI+AR8Ah4BBwM/G/AI+AR8Ah4BDwCHoEQAQeDEAp/xyPgEfAIeAQ8Ah4BBwP/G/AIeAQ8Ah4Bj4BHIETAwSCEwt/xCLwYgf/8tchl9774b3/PI+AR8Aj0SgQcDHrlTvt1Fo7AOx4W2ftdfcfD/1n42/wLPQIeAY9AV0TAwaArbqNfRCsiAJXg4A+/CAWAAweDVkTWf4ZHwCPQSRFwMOiku+Xn2i8RABBYlYBqAVZPJ/RLyP2HegQ8Am0cAQeDNr45fmr9HwEoAhYE4vehIPibR8Aj4BHopQg4GPTS3fZrDRGASvDyj9eHAkKCpxNC2Pwdj4BHoAci4GDQAzfZLzEdgby0AUEgXvH1/uYR8Ah4BHolAg4GvXKn/To1AkVVAgsHnk7wPx6PgEeglyLgYNBLd7vHr/XObxVLHVgo4PueTujxPx6/fI9AD0XAwaCHbnavX2ozYAClwd88Ah4Bj0AvRMDBoBfusl+jRgCGQyoAZVekE1w18D8kj4BHoBci4GDQC3fZrzFEoIrHgBDhPQ1CGP0dj4BHoIsj4GDQxTfXL602As2kE9yEWBtP/4hHwCPQfRFwMOi+e+pXVCcCzaQToBx46WKd4PqnPAIega6IgINBV9xGv4gyEWgmneBwUCbS/rUeAY9AJ0bAwaAT75qfc1MRaNQGmZ6CvBUpBaQk/M0j4BHwCHRjBBwMuvGu+jXVjQDSCdjc8zb+Ih/H98OM6JUKdUPtn/QIeAQ6MAIOBh140/yUm49AMybEGByoIAASHBSavzf+EzwCHoHBjYCDweDG33/7IEWgWRNiDAf1/g1w4AF/Aw6oDThgZgSk8ABY4Nz8zSPgEfAIDFYEHAwGK/Id+nu7adNqpWpQDwyqfo4wQYjA+boi0aH/cfy0PQIdFAEHgw66WYN9qni6xWbVLW+t8BpU3fSb+T4CA+6Hg0K3/DX6dXgE2icCDgbtcy/a9kywgdoSPzy5dssbrq2ZTbodvheg4P0VuuUv0q/DIzD4EXAwGPx70NZngA0n3vy6STVA8LOuMb7mTvg37ks3pXra+j+Gn5xHoIsj4GDQxTe3mUuLVYJ4Y+wmCRvX2k1w0E2KTjN/w/69HgGPQLUIOBhUi1tXf1cRUx5SC932BjjAU3cMQZ32b1xDN4Fbt/2d+fV4BNo9Ag4G7X6HBvD8sJmU2Ri7cfOBegAwQiVApwGBPV/cR3/zCHgEPAJVIuBgUCVqXfg9RVQCu/HgfWye3f4GUAAAIT71DqgNLCuEmlIGsOK4turfOCd/8wh4BDwCZSPgYFA2Yl369VU2I38qbfzHALDgQcAgRAAgbLVHlXtQ73u6Md3TOOL+FR4Bj0CzEXAwaDaCXfD9VdQCbkj4Xn9rLgJUJQAMrQQFB7fm7ot/t0egVyPgYNCrd95cdzNg4JuPCWSL3gUoABKaTUf4vWnRDfEf4xHosQg4GPTYDc+6XEjcVACqrN1oQsyK00B/jIBQ5Z7gexwMBvqO+e/zCHRHBBwMuuM+NnUV2ICqbj6+ATUV+obf3AwcOBg0DK9/gUfAI5ARAQeDjKD04oeaSScADlw16L+/GsBBFe+Bg0H/3RP/yR6Bbo6Ag0E3390S11Z186HS0A2bEGKAA5CEHH/RA18PMML39tdbVXDrr/Pxn+sR8Ah0bwQcDLr33pa+Mmxs3OirrNi8OuEt3vyrPI3nxQeAhAM/E30NEBOCQzOxqXpvmvmd/r0eAY9Ab0bAwaA373vuVTfT8a+dVQNsrK1w+ucBQdGPI0YEhtybkPMJfG/R34Ova+f7kXOJ/mGPgEegDSLgYNAGN6GdTqHqkyk3LGx67fBGEAAM8NzabSUkFPVnOBi0w1+Wn4NHoPsj4GDQ/fe49BU2K60PVkqBMNDs+Q8GQACoGgGCg0HpP2X/Bo+AR6BCBBwMKgSt27+lWdUAG1ijTa6VMYQq0IkwEAMI4oZryXuLv77Rv/Hz/M0j4BHwCJSNgINB2Yj1yNc3u9FiUwJg9Ncb1YFGm2Mnfj5vQy97LXk/p7/uif9cj4BHoDsi4GDQHfex5VeBJ/6yG1H89f0BB0hTNAst8Xm247+zNnV8rMy5Ik7+5hHwCHgEykbAwaBsxHro61uxAbcCDrpZHai30cdGTgeD6v/5fvHss/If3/iGPHDvvfJPt98ud3/0o3L7hz4kH3vf++TD73ynfOCGG+S9b36zvOuNb5SbeFx9tdx09dX6+U/efLN84dOflsceeUSe+OEP5b9/9avqJ+Pf6RFo8wg4GLT5DRrM02vWa8BNDxtavdx51jUSBloBJzgPnAMO/DxsuDifrAOfw9Gq38sYVF2tkdPBIOsvJf0xbNr/du+9cueHPyzv+au/kje+8pVy3qZNepx/3HGC4wIemzfLBZs3y4U8jj9eLjz+eHlldFy0ZYtkHZdu3Spvuvhied9f/ZV84uab5dH775enH388fUL+L49AB0bAwaADb9pAnjI2yaqbWvx92Njw89jwB5s/D6QuuFGX3QCzfg9/VrMmSHt+OG8cAwkPiAXfysYFcNOtb3/64x/lyR/9SB783Ofklr/5G3nrq18tF27ZIudu3BhAIAaCAAYJEAAKLBgUBYIsSLAfu/Skk+Td11wjn77zTvnet74lf/j977v1Nvh1dWkEHAy69Ma26rKwMcYbb7v9GxsmQKBZCKgSM8SHUNNfKgOuDW+9DAZ//vOf5fEf/EA+c/fd8q6rr1YIOPvYYwXHOTw2btT3AQf2ICBwDYBABSECBCoImaBw/PEp9QBfY6Hgoujf+DxA4UNve5sqCr95/vkqf2b+PR6BAY2Ag8GAhrszfxmektsNBrAJc8Nsp6gCFHBeZTfxevHFz8Jb2Z/Z6YrBM089Jfd9+tPyvmuvlYtOPFHO2rBBDwIB1xQYGCggCHAlEHBVxQBphRgMCqYSUkCQk27I+hqkHr7y4IPt9Gfr5+IRSEXAwSAVDv9HXgRamVKotwnW+xzOoR1hICtmAAQAVatUBKgSvQAGv3zuOfmnu+6S151/vpxxzDF6nHnMMYKDYMD17A0bRI8s5cAAwrmJxyAAwqZNcj4OKgYFPQdZm3wzH3vtWWfJPR/7mDz7zDNZf0L+MY/AoEXAwWDQQt9ZvxgbXdmNqd4mX/Rz+J2dAgN5d7QVigtiUDRm/LpOUQx+/7vfycNf+IK8/aqr5MwNG2qAIBcMEiAI6QSkEiIgKOM5YAoBBsQyJsRm4ADfe/HLX64VEf/v4YcF3gl/8wgMdgQcDAb7DnTQ7wcccNPpz5UwgN/XLW+4lmbUgyqKDeLYzm+/+PnP5ba//Vs57/jj5bT16+V0HkcfLacffbScwaNFygEUA6seqGLQrHIQeQpqIKHk5688+2z53Cc+Ib/77W/b+db5uXV5BBwMuvwGt/ry+hMO8FSMp+tufUPsqqouVaCiXcHg21/7mrz7r/5KN38AQYCCLCA4+mhNI1A1yEwpNEolJCoCUwlcmUrgmuU1gIqQaUIs4SmogYUC33v5GWfIZ+++W377wgvd+t/Br6uNI+Bg0MY3p11PrZkNLlYaqA6067W2+rzgFYhjUOTfVYCi3cAAQPC6Cy+UU9etSx2EA65QC1KKQaIcWDioBwghtZBUK9gKhbKphf4oZywDCq857TT5zF13yW//939b/afoP88jkBsBB4Pc0Pgn6kUAcFAl781NEN87GOWF9a5poD5X9emfsSuzDtQ11fs9SBm8+y1vScEA4EBBgCvTCFhjMIhSCfAh0ICI1RoQU1CQ5TkwRsSqqYRXFnjiL7P5F/naK848U/7lH/+xXpj9cx6BlkXAwaBloezNHwRAKJr/xoYIIOj1t6qqQRkg4Nfi/gzWGxr73HPrrXLmscfKyWvXyilHHZU6GioHhAV6DSooBxYUKikHSTljMCY2Si1EnoIifQ5SYNDg+998ySXylHdXHKw/6Z75vQ4GPXOr+/9CsQnBI4ADAIAD7/eqMpAXccSJG3d/r4MV+8e+/GW59PTTFQhOPuoowRHAIE4lQDWoqBzYlEKZ8kVrQoTnoEr5IpSDmo1/gNQEzHvwN49Af0XAwaC/Ius/1yNQJwJV0glVIGKgwQB9CN71pjfJSWvWyElr1+oBtUCPGBASWKByoHBQBRAy+hzY9EJeAyTAQT3PQatmKqQUgRaCw/WveY38/Kc/rfNX5p/yCFSLgINBtbj5d3kEmooA1JSyG/1+7y3/PQOVuvnjH/8on7rzTjnj2GMDEMRgEBSDCAgCGCQVCikTYobnoIwJ0aYS0OPA9jlgdQJXVidwHazOiGVA4rKTT5Yvfv7zTf0t+jd7BOIIOBjEEfF/ewQGIAJVfAZVwADKRH+//eePfyyvPvts2bp6tbxi9WrZumaNHqoa9LdyUKecsXBqIaOcsXBqoaTnoGbTjzwFVT//geuvF5/D0N9/6b3z8x0Meude+5W2UQQGymfQ3yWLn/vUp+TUo49OAUEAA6QSMsCgtHJgVANbxtiMcmCNiFQMuFIx4Mr+BlxpRByM/gY14GBSE68/91z58fe+10Z/5X4qnRoBB4NOvXN+3h0fgbKphKpf3x8+AzydvuOaa+TEI49UKIBSwINgwDVPOSgECAU9BxYSbCljmXJGggFXBYOCnREtJNTbvAfic/fec0/H/9/wCxjcCDgYDG78/bf3cASqNC2qAget9hl8/zvfkVdu3Sonrl5dFwzygKCmSgGeg6xKBeM50HbJBfob2CoFAgJ8BvW8BqoemP4GKTCwg5YypjCmZioMYpVCDBw3v//9Pfw/yy+92Qg4GDQbQf9+j0DFCAxUZUIrfQZIHWxdu1ZOWLVKTjjySD2gGuQqBwU9B1Y9oBmRa9VqBQUDM5WxsOcgggT1GxRUDiwoYLOuKWeMPAX9+fl3XnWVvPCb31T86/Rv6+UIOBj08t33ax/UCAwUGLTCZ4Cqg/ddf30mENQFA2tEzCpfrNL4KFYO0PgoKVmsm1JoNI0xw4QI9YBeA66x12CgpzHG6kC9f6Mh0n8999yg/p37L++8CDgYdN498zPukggU7RhZJX0Qf08zPoNf/+pX8vqLLpKXr1oVDlUMoBqsWqVqAeEgVzlIAAG+g7iMkX0OrGqA96kYcGUZI1dtnbx+/YtTGEt2RkR/A5tisIbEev0NUoBQtjOiMQvW29Bb+bnXnXOO/Ozpp7vkf41fxkBEwMFgIKLsv8MjkBGBKr0M4g2/6L+rphMe/+EP5dwtW+TlRxxRCwVRKkE9B7EJsWAqoWFnxNhvYCoV6o1ntnMV1GuA2QoREMT9DbTxkUknEAS4Fm18hM19MOYqZEHFq087TR7//vcz/gr9Qx6B2gg4GNTGxD/iERiQCFTpZVAUBOKvq5JO+N63vy2nHnOMbDniiNRB5cCqBmWVg1DGuGZNX1dEdkesklpIICEAQknlwKoGUBFKKwcZqkHhcc2R56BmU2/h57edcoo87XMWBuT/dqf/EgeDTr+Dfv4dHYGB8hkAFDC3oujb17/6VTnpqKNky8qVAQpUNSioHLB0URseGdVAUwlIJ2SlFKKWyUwhcPVpjFukBhxKpiYuP+MM+elTTxX9M/Cv69EIOBj06I33y26PCGCzjp/u++vfRdMJjzzwgGxeuVKON0dVQLCeA3RG1MMaEgsAQuw3qFqlgLSCLWcsXKUAU6JJLagh0ZgSi6YWBnPokgWKK88+WzDTwt88AnkRcDDIi4x/3CMwABEYqA6IhI1GJsT77703BQSAg7xUQiqlkJQsVjEhwowYhixVSSWYKoWmOiNilkKVVELS3yBVrXD88Vqq2E6NjywcXPfqV8vvfvvbAfgL91/RiRFwMOjEu+bn3FURGMjqBPyuvLd/+fSnZfOKFS8eK1fq+1Y5sKBQOLWQ0eegsHJQBxQKKwcFyhlzpzGWAIXCykECDdio+7OPQaOf/8EbbpA///nPeX8O/vEejoCDQQ/ffL/09ojAQJsQs1SDT99zjxy3YoUehIM8IKCCoIpBjuegqnIQ1IM6QJDyHNhqBSgHGdUKtreBTSXEnRHjagWYELttGqNVDfD+P956a3v8J/CzaKsIOBi01e3wk2EETjvtNLnvvvv4z65fB9KEGHsNzvvwt9XnsN9bnxEcCy77rB4Hnf9ROfzU62X1lkvlmKO3hhQDwYBrnnIAOEB3REKCNSSqKRFeA2NMrNdC2fY4IBhwVeXAAgLgoCogFChnZMtkrixj5JqnHEAdiDsjxhv1YPz74R76f9b1LyQtukAHgxYF0n9M6yLw4x//WF7ykpfIdtttJ5MmTZJrrr66dT+8TX/SQKoGtkJh+XufKWV+BDjMesNjsvCyf5aDL/h7WX76DbL2hG1y7DEn9XVFzGiVrGBg+hsQEBoNWaqZqbBunVgjIoAAcBAaHuUAAboi1nRG3LBBqBhgzU0lJN0QtYRx0yYtZSQQcG0EBJmdEUtWE/QnMPzlCSfI979VomSlTf8P+Wm1LgIOBq2Lpf+kFkUAYPAXf/EXfXDwkpfIS7fbTiZPmiRnnnGGfPQjH2nRb2m/HzOQqgH6Ghz43l+WggIaGPNWKg4KDtv+WVac/jaFhrUnbguqASCBYMDVqgb1yhmtamABISgHUA0KgoJNL1hAiCEh1eOgSGqhYLVCYVNiC/sYZMJF8vNfc9pp3jq5/V4SBu2MHAwGLfT+i/MiEBSDRDV46UtfKi976Utl+5e9TI/9pkyRs848U+6///68H9GRHx/oCoW8Db6/Pr7ftT+V2W94TBa/+l5ZecaNeqw78dVSWjloMI1R0wgZqYQa5SAqXyQgxF6Dms6IGeWLUA+oHGDVdEIHTWMENNx45ZVuRuzIV47Wn7SDQetj6j+xyQhkKQYWDnbYfnvBseMOO8i0/faTc846q2sgYSArFPoLAKr83KmAhqu+ptAAcFh15ttl/dbLZfOm017sjIgGSCVMiQAEpBl0pkLSDdF2R7SqQT1TIkoY9ShZzgg4UEiIAWHz5pTXgOpB5hP9AKcc/un225v83+vf3g0RcDDohrvYZdcQFIPttlOfgYUCqAYKBdtvLzvtsIPstOOOsvOOO8ouO+0k+0+fLueec478WwcrCd2uGlSFBoDDnKu+Jkte8zk58qx36LHhpCtSg5boNeDKIUs1YBBNYqRSwJWKAdcUGBjPAVQC2/jIKgYBCJJ2yehxgDbJerSpCRFgcvHLXy5P/vCHXfaK4pdTNgIOBmUj5l/f7xHIVAy22y6kE3YgHAAMdthBwYBwsOtOO8luO+8sM6dPl/POPVdu/tjH+v18W/0LBnK4UpWNut2+B9Cg4PDGr8sBr/mcrD77nXpsOPm1csLxZ7xoTkzKGa1qgPfLKAfWc1B6pgKUg+OOexEQElCgYsDVKgf4mP33RdG/++Pz127b1uo/af95HRYBB4MOu2G9cLpBMaDHwEBBjWKQgAEUA0DBrjvvLLvtsovsvssusseuu+oxe+ZMWb92rdxy883yxBNPtH0IoRoMpBGx3Tb6/jgfhYfrfiYHXP55OfDyz8vhf3mrrDn3Jtl46pWy6dQr5RVbzkpVKagJEVMYC5QvduM0xs994hNt///ET7D/IuBg0H+x9Z9cMQKZioExIBZRDCwcDNltN8ExdPfdZdjuu8u8WbPkure+VR584IGKZ9j/3+YphYGbIWFBZNp1PxMc867+hhx4xb/osfyS2+Soc2+So857tx6bT3u96HH6G+TkE8+VU048t28iY1TOeD4MicaUmNffIKucMaUSDLDPAL/7VVu3ynM//Wn//6H7b2jLCDgYtOVt6e2TCopBEY+BVQx23jlTMVAo2G03hYJhe+whw/fYQ0YMGSIjhw6VBXPmyEUXXii33XJL2wXdUwqDAwcWFKq8T7jgOv+ab0rWsfTK+2Tpa+8TXfF+ciy78j5p5lhwzbek3jH9+mcl64ivdfY7/ksAqP7WexFwMOi9e94RVzxx4sRUHwP0MmDJYmnFYNddU4oBwCDAwZAhMmroUBk1bJiMHjZMFs2bJ2+77jr54oMPDnqcPKXQmWAQb7Cd/O9T/v6ZQf9/4Ccw8BFwMBj4mPtvLBCB5cuXy3b0GJg0QhWPQUox2H33F6Fg6FBVDQgFY4YPFxxjR4yQPUeMkAMWLJBLLrpI7rjtNnlokEDBUwoOB4MJFjNu+Ll84Qf/W+B/rH9JN0XAwaCb7mYXXQtmJWhb5KTzoS1ZtH0M8qoS6nkMchUDAwYKByNHyriRI2X8qFF6HLRokVx68cVy5wDXet/5Ld8cB3NzHKzfvdelD8n4GQfI+AM3y4Sz7pC9rnmypZ0qi17Xlg/8qIteWfxSikTAwaBIlPxrBjwCb3zjG7WHAeYlWCioUQxMHwNUJGRVJaQUA5tGqKcYJFAwDlAwerRMGD1a9hozRo+9x46VpYsXy7IlS+SdN94oDz/0UL/Hx/0GvQVHgIJx48bVHAAFQELRTb0VXzfj+mflX777fL//jfsvaJ8IOBi0z73wMzERwGTFlGJQ1mOw886hZHFICY8BUwlZioHCwejRsveYMQI42AfHnnvKxHHj5JADDpBXbN4sH7/jDvlSP4CC+w16BwygDGRBgf2YAsLxNw4YIGx673+Y/53+brdHwMGg2+9wh14fKhOCx8BAQY1iYKsScvoYpBSDEh4DpBFUMRg1qkYxABRMBBTsuafsO26cTBo3TiaPHy+TJ0yQKRMmyOEHHSRXXHaZ3H3nnfLIww+35C4ADjD8qBVPgf4z2jOOgAKkDiwE1Ht/oAABVQz3fd+9Bi35j9wBP8TBoANuUi+eYihZzPIYFOh82B8eA6YTgmJgwEDhAGAwfryCAeBgv732kql77y3T9t5bVixdKq/dtk3+4a67mrqdDgftuaG3CrTKQIEFhoEAhCPe/7Om/nb9mzsnAg4GnXOveu5MtTKhkcfAKgb95TEoohgkUKCKwV57BShQMNhnH5m+zz4yY+JEPVYdcoisOvRQed+73iWPfulLpe+rw0F3wkFVKIgBAf6EVoGK/TmoUHjgx38o/ffq39B5EXAw6Lx71jNnzJJF9DAYqD4GpTwGiWIAj0GeYhBUA8DBxIl6zNh3X9l/331l5qRJeqw+7DB5/WteI5+4+275ckFQcDjoLjhACgHHhONvLJVKsFBg38fPsZt6q96/5OYf9MzrTy9fqINBL9/9Nr92GBAbViVYxWAwPQZWMTBphCzFgFAwa9IkmTV5ssyeMkXmTJkic/fbT4+jli+Xq664Qv7xH/6h7h0CHJxx2y/6ZQNo1UbiP6cawARImHFAYb+BBQO83x/phf1v/IX8+c9/rvt36Z/s/Ag4GHT+PezaK6ABURUD0+RosPoYlPIYmHQCPAbTEsUA6QSAgYWD2REczJs6VXDMnzZN1q1YIetXrpQPvOc98pVHHknd668//kuHgndV23g7BVhUSUA/gxKGxBpAOHBzS3sg3Pqv30v9Hfo/ui8CDgbdd0+76opWLF/eln0MaqoSrGJgoKCuYjB5cqZioFAwdaosmDZNFkyfLgunT5dFM2bI4v33lw2rVsmbXvc6+ad77pFzLrhcZlz57w4HFeHg0I+IXPSZzgELQEJVQGilerDsHe0/obSrXgQH4WIcDAYh6P4ri0cAPoNKHoMB7mNAj8EkAEJSsgh/QRGPgaYTJk/WdMKcJJ1AxQCqgYUDAsLhCxbImoMOkpVHbHI4qAgGp9wj8v+eEZn07vaGA5So2mPJ25+USUuLlzRaBQFgAcBoRjFB6eJ//+pXxf8T+1d2XAQcDDrulvXWCX/hvvtSxsNO6WNAILCKAcyHTCXAeBg8BkwlGCggGEA1gGKwcMaMoBosnTtXoQBggOOIVcfJ5Lf8pKkX+2Y2ik793o9/W+QXL4is/Pv2AoPL7hVBG2x4SOq9PfrtJ2XV0eUBQdWDJrsnXnPrY/VOzT/X4RFwMOjwG9jtpw+fQY3HoAP7GFT1GAQwSNIJB8ycKUcecICsPvDAFBxAOXA4KL7B4wn8e7/o+9/ztoeKf19/QdCWj/fBQJX/z3fccYcccEB5k2IzlQsz3/7LKqfq39MhEXAw6JAb1cunuXLFijByua5i0CF9DILxsILH4IglS2qgYO1BBwkOVw6Kb/BbTcHH/U+I7Pee4t/bajh46D+b/9/95JNPyo033li6ggHqQdXUwmM/eLb5E/ef0JYRcDBoy9viJ2UjcPXVV6fSCTuUVQz6a1ZCi/oYFPUYHLZgQVALoBjwYEqBngNXDhpv8v/wnRf/wn7+G5Ejb278Pa0GAqgEjdIFL55lsfcACGXVg6rGxHd+7L5iJ+Vf1XERcDDouFvWeyf8hS98oZhi0CV9DFJVCYnH4KA5c+TIAw/UIwUEJqXgykGxzf2Qv3sxjcD/TUaxeAwAACAASURBVG9/uNj3tgoOAAX99VZVPZhw5CWlfCoHXPf9/roE/7mDHAEHg0G+Af7ri0XAphN6qY8BPAZL9t9fVi1ZomoB/AUxIKjfIAKEI9xzkLvJoRohfvvC4yLT3jswcNCfUGCvq6p6ULSlMqoTfvb00/ZX+vtdEgEHgy65kd1+Gddcc43AX1DjMdhxR9l5xx1ll0Qt2HXnncUOUNqDaYTddpNhu+8uw/bYQ4bvsYeMGDJERg4dqseoYcNk9LBhgnbIbIm8JyYrcrri6NGNpyv2Ux8DVCSsWLToRShIjIdUDRQKkuoEphTWHnyw4IDnYOHZ/yd3g2zV02+n/Zx7vlv7vwXphDW39D8YwPTYireHHnpIPQWbN28WHEgf4MD7l1xyicCQiK+poh6USS38zd3pplutuDb/GYMfAQeDwb8HfgYFIoDqhJe99KV9YFDEY9AlfQwOmTdP1QIoBqsOOEAPVQ2gHCSHhQQLCmpIPGKTw4Hpc7D6ZpH/eC77D+6DX+1/MGjGaFhlkwcswJR41VVXVTMmNhjItPXGB7OD6R/t6Ag4GHT07eutkz9i5cpaxaBdZiWMG6cjl21zI/QwaKaPwYGzZgmqEBQKMsAgDwhSygEqFg4+uKfhABUHMBde+S8iX6xTAfD9X4jc8S2RzXeJLPxg6yGhmRQCnv5to6Ky7wMQAAdYy35vvaqFRW82Ls7eejnq6qt1MOjq29tdF/fRj3ykuGKwyy6y+y67CFMJQ3bbTYYilbD77ppKCOmEIUNk1NChoukEk0oYO2KEMJ0wftQowVFqVoIZpFRlVgK6Ha5cvFiOwLFkSV1AgOfAQsIa4zcAJNCUeOixF/ZMWgHdDNG46IrPi6AcEamCom/PPi/y5adFbv+myKY7ROZ9oDWQULUCoUoZYt7mv3DhQjnuuOMKw0EjvwF8Bk/+6EdFQ+tf1yERcDDokBtV9jS/+GD3SXyP//jH9RWDLupjgJbHRYCAzY5SYJB4DgAECgaJ5+CoxHcwpUu7JE68SWT5R0Ve/bk+GHiuBAzk/f8CJHzlJyLvfVRkw+0ic/6mGiRU9Ra0AgroOXj729+uUADVoAgcNIICeks+8A+P5oXPP96hEXAw6NAbV++0n3ziiWCiWzJ/vlxy0UVyx223yUNdAAtIJ3R7H4ODZ89WtQCKQVANCigHFg7wvqYUuBrloFsbIX34MZFf/7be/4zmPvfLF0S+/jORA/62PBygzXHZt2bTB9j84UuI3/AxfK5eaqEoFAAOrr7p7vhX+L87PAIOBh1+A7NOX8FgxAhROXzEiBfd9ZDER4+WgxYtki0bN8plf/mXcuftt8vDX/xi1o9py4+hpwHKFXfcfnvZaYcd9AhVCV3QxwBDkggEXBsqB0kJYyYYUDVIvAbwG1A5WHROd1Us4Kn8/P/b5xN4tIVVdFAekI6AEgFFYp+byoPBO79U/r9TFT8AUwj43kZv+BrAQaxKlIECgMHGaz7b6Ff55zssAg4GHXbDip7uonnzFAyYK9d8+ahRMi6BA+bL9xozRvYeO1aPZUuWyAnHHSfbLrlE7rrjDvnSQw/Jf2Y8cRQ9h/74OqQT9psypQ8ODBhYONgtKlmEv2DAPQZ2suLee0uRWQlz99tPDl+4UMsTUaJIMOBKQMAaqhRsf4MGVQopU2ICCIcde6F0Y2ph8YdELvx03/yBR54q/5cIGPi3J0Qu/3yfV6HZCYxlqxFQbshNvsqKtEGjNygHgAP8LsJBWSgAGCx407fkj3/4Q6Nf55/voAg4GHTQzSpzqhuPOSYTDNRIl1OXv0/S4hcjhO0Y4cMOPFAOO+ggOWnLFrn80kvl7jvv1OORhx8uc0ot+9qPfvSjLyoGXdTHYNm8eQoFBAGuakAskEqIGx/lpRLY5wDKgaoHR26WuZf83641JkL6v+gzIpimyMFJWX+Mz70ggkZHr/3/qxdWfUxkSgvnJ5QFg2bUAoDEFwuqgPAf4HcBEnCO9A2UWWFAfOrHP84KqX+sQyPgYNChN67Rad9w3XWphj1UDkLTnsRlHysH+4wdKxMzAGHy+PEyZcIEPTBS2I4VXrl0qaxctkxeu22bXLltm9xz111yz8c/Lo9+6Uvy1H/WqQ9rdBE5n3/88ccbKwYd1scAKYTlCxfqAbXAHgQErlY5COpBVeUgSTEAEBb1QDOkk/5B5Ds5fQz+/mv91/2wLBhUUQns90AFKPIGZQHfB0DAG9IxZaCAX/vlBx4o8uv8azokAg4GHXKjyp7mbbfckgsGtvyOYLB3klIoCwahFG+ffWTGxIl6YHrg/pMmycxJk2TWpEkye/JkWXPYYbLm8MPlzK1b5arLL5e/fve75ZN33y1ffuQRPcpe31lnntleHoMm+hhoCmHBAlm+aJEehAKAgE0pVFUO1IiYYUKMlYOjli6VI47c3JWpBW5gUAGQIsh6O+b2apsif3a9tQwYNGs6tBt91nXajxEMmlUNbrrlfvtj/f0Oj4CDQYffwLzTf/CBB7TNL1v90ojI2nz1GkR+AwsHWWkFqAa2gc9+bOBjcujTAQcAg333VTBQOIjGC8/Zbz/BZohhQTowaNo0mT9tmqxfuVKPc089Va658ko9Pvje98qn7rlH/v3RR/Xg9UI12LGdPQYl+hgsnTtXvQVUDGJAsKAAWCgFCKaFMvobhGoFU6UQAwLgoNuMiXbThm8gfvv3n4jMrliKaH923vt3fiv+jfn/bgUYAA6yKhLi32pTFvAZ4K2KanDpe/81/tH+7w6OgINBB9+8eqeOygRAwWjTtAdQkAKDxGswYcwYsSZEQIGCQeQ1ABQoGESpBBjraK4rAgaAghgMMCwITX0wGwCyOo7F+++vx5KZM+WAmTMFnQBxbFq9WjatWSOrli0Lv5fnDwAaPmRIaG7EBkdDm5mVYJob8ffEysqkirMScI0wHAYoMObDGAjqphJMi+RGrZJjE2IMBuuWLhUcB299S1eqB2h89N0onXDTI/2nFgAWypQrtgoMqALkvU5QLWAKAl+PtypgcML1rhjkxbkTP+5g0Il3reA5H3v00bkd/VilkGdGRKVClmqgG2CO18ACAtIKmlKIlAOkFeZMmaKHBYT5U6eqagBAABzEgIAJg4ADCwgHzZ4tqPk/eM4cWTpnjiybO1cPzBfAAYjA1+Bn4XfinKB6sApDBynZzofJICXAhfVk2NTLXqNHS1BWEi/GRANQeV6MLHCCWnLYggWCZkZ6LFyYhgSkFuqAQmHlIKOc0XZHZGfEGBCYWug29QAVBig/tG/rb+tfMAAcFH1rFRhwwwcAWPUAxsSsBkcEA0BMnvKR93EvWSx6dzvj6xwMOuM+VTrLG669thAYwGdAr4F9Iq4CBtP32UdUNagABqoaFAWD2bN10wcYAAogxysYJFBw6Pz5giNsvHwqT4x9lOTxNQoPiUoBeIDJEopAbNREbGx8rEkzpRiYNIKdlWA9GLMmT645PygHVj2gYsCVigHXGhMihiwlMxWoGtTrjFhUOYB6sOrIzbL/675aesPI20gG++PoScC3rz4jMvP95TfDstdQtCUyNnFu6gO9AkqQ9ih7bYe/sXN6ofC++5ofAQeD/Nh0/GeQTsAcAE0pxGOF2fho5EidA4CnYgsIeCrG5lgjmUcmO2yitkJBn4wNHFi/AYyI2BChGsxuoBpoWoEphSStgJSCphWSlAI2dFUN5szpUw3mzu0DhAw4UEDIgAMFBNMXwG6k2DhXLlqkGzjUB6oOuOY8RSUoBibdEgyaxpyJ88Y5HZbASwAYqAdlAYG+g2imAq4FExkJCZkNkAqaErstvYBGRZyy+K4vld8Iy26c+PoyTY4wPnmgoQC/ryoYoJeBv3VPBBwMuudeZl7JsevXp7wGY4YPT8nkWSZE+1RM1SCWy2lCnGI3QHoNCAb77psyIgIKFAymTOkDgwyvAUyI9BosJBgYr0EjMMhTDSwYxE/gLPmLN1D7RI1yPm6O65ctCyY+9B7A+QJ0NFWBNIuJSZZisHjGjEJAUGNCzKhSINjwGqgYWCCI+xsQEML10YhoZipoj4OlSwXpBF73umXL9P0jV2+Wxed8uPRTZZXNtL++B3MVPvHdvv8yR906MGCAaymqGrDh0EDDQWUwuOZb8pvnn898DfIPdl4EHAw6756VOuPrkU7g9MDYjGgmCBIQYtVAn4wjv8GkceOEXgMCgvY2YJUCAWHixL60QoUqhTJmRKsc2LQCvQZxWoFGPwsImq9PlIMsQEAeXjfLCBCOXrZMjj7kEDnmkENkw6GH6tdgc4ZnAL4I+AgCHEycqKrDofPmqQoRzguqQUHlALBgzxuKRkgt5CgHgAQLCgQDruo3KKgcWFAAIHRyegG59O/+XGTG+wYODIqqBoOVTsDvrZJKQJOjZ56q0GKy1KuZf/FARcDBYKAiPUi/B2WLuWCQU6Vgc+lWMreqQQoMMp6Qs8x2KF3MKl+0JkSWL+aZEOHij6sUYjCITYjqNTB+gzww0Kdt0ygobJzJE3UKDJYtEygHhIJjDj1UwWDDYYfJsYcdJhsPP1yPTcuX69fg6ZxP9QQCrppSoAExI5Wg52uAIAUGyaClwsqBKV+014fzy5rGmKkcJCoCrh/H0pM6s3ph810i1z44cFBA9aOoaoCmQwOtGOBlCvDCcy26AgzWrFghV1xxhdx///3yxz/+cZBe8fzXtiICDgatiGIb/4wnnnhCRg4dqscoKAaR18C677NUA5tWsGY7tkyu6W2w1159T8jsbRA3PkqqFNj4KK5SmJf0N0CVQpYZETI8nsQJB6xSiOEgy4zIp3JWAFjHf7yxqmrAuv/kaTq49qONEXCggFAHDgAIx61YIZtXrJDjV64UAgM2Z5yHwgs8BzEgoPERvRHJSjDgSsWAK02JBB2mF6iEcCUYcGVqgZAQrjdpnZwCI5NiABxAPehUQCi6+bXq61AOWAQOBlo1YPfDLR8vDwaIzaJZs2To0KGy7777yoQJE+T000+X2267LVUR0cYvlX5qJgIOBiYY3fruhvXrU6oBfAb0GlgwsGV5rFIIpXklWyUHEyLBIEknsPFRbELManqUl04IYDBrlhxgjIgoW9TSxciEeIipUKDXQN3/pkIhBQbRMCJumGGjbAAGUAxi1SAGA8DBliOO0OPlq1YpLCAVgd9Rt3zRKAcEAa4KBAVnKhAGsPL6uNYrX7SpBCoGXAFHq+E/OPfDMuWtz5R+6mzVxtsJP6doSqHZYUplFAf8LgBL1fgdNH9+UDj23HNPGTFihMyYMUMhYfny5TrJ8UtfqjBmsltfmNv4uhwM2vjmtOrUkE4YOWRIn2pQskoBdfuqGsRVCqzdj6sUTFohuPFpRoy6IuZVKQTVIOmIGNIKbWxGxObItAI2eBxZgHDc8uWqGlA5ICC8/Igj5IRVq/QAMODr8ISOTd8qHFY9oGLAlYDAlcoBUxjqNTCpkiLKgaoHsSkxURCCKTECJSoIAISqm0wvfF/RbogDYURkD4MqaQTeqwPmzg1gEAPJqFGjZMiQIbLPPvvIxIkT5dxzz5X3v//98rOf/axVL3P+c1oYAQeDFgazXX8U0glBNSAYJKrBmKiZD9MJ401vA6sasErBTmC06QTryIdqkOU1CHMUSlYpZHVELFKlkGdCZM+AeGPlRhpvnLpJIhcfbYz2iZkmxBgMNh1+uG72RcDgxCOPlBNXr5ZXrF4tW1evlhOOPFLgYcB5KRhkzFQgDGAt2vgIagEqFqgeUDHgWlQ5QLUCY0BAYnpl9erjZYkDQi4gFZ2h0N9wgGoEvFXpekgwWDxnTi4YWFAYO3asphymTZumaYcjjzxS3vzmN8tXv/rVdn0J7bnzcjDokVt+6y23pLwG6jfISCnYjoi2QoFeA2tGtHBAMyL7GtTrbVCmI2IjM2K9johaoZDREZFmREr23GwBCHT5Ew7o5rebp26YzLubp2VboUAzolUNAAeaUqDfYOVKTSFsSdIKSCngAAgADgAGCgdr1sjWNWvkpLVr9ePYfHnOrahSiMsZq1Yp4LygIhASNB6JkgJAWHbSWz3F8K5aqb6o36C/4AA/F2/NqAWAg0WzZxcCAwsJeJ9qAnwJ8+fPl4suukiuueYa+a//+q8eeXVuv8t0MGi/e9IvZ5RlQrRzFOg1aAQG2vQoYyxzETCwnf/oNWCVQmxC5CyFvFbJYY4CWyUnXoMDTdMjW7qIfgNQDmwlQEqiN36DULpoyvxsLj6AAev8TYUCTYgKBonX4FhToWC9BpsJBsZr0AgMTl67Vk4+6igFBqQjoF7EigfVA8ANDxoQCTqqhkAxqFOlEJSDOJXA6zYGRAsEAQwSUybVA8RkzZotcsjJ13Z0mSOfkFu5Fk0r4Mk+3lib+TehoBlvAeOwYNasps9tzJgxMmzYMPUl7LXXXrJ48WI5++yz++U10X9ofgQcDPJj03WfeeX554vOB0BfA9PboIwZkcpB3BHRVilANYiVA+s3yAKEhlUKaHyUHKk5CnGVgjUjmjkKZaoUrGpA5YAbaQoQuGEa1QCbot0I1W9QwYwIv4GmFHKUAwDCKUcdpQfUBMAHAcEqH2VSC6ocGFAoOo0RhkRrSqT3IAACYmLjkvR9ACTMe9Wnc2V2bji9suKJfaDUA3gKmD7A76xaiWDvzbz9928aDAA5I0eOlD322EMmT56sfoRXvOIVXfda3O4X5GDQ7neohecH1cCCQVarZCoHmBPQVJVCYkJkSiFUKSRtgdkq2foNbKtkW6VgVQN2RdTpi2yVzPLFDqpSgNfAli/ShAjjoaoGOWBwUpJSsGBw6rp1ctq6dYKPoX8C4IWqgYKBUQ4IOinlIKrCsGkTqgZYWZVBj0W98kVCgQUlC0xMtWBdu2aLLDn37xwQ3tW3QReBA7wsoJwRT/zY5IuqBvhaqgR8aWkFFAAQZk+bVvg87PnCczB8+HDZbbfdBNUMa9eulQ984APyzW9+k6fo6wBHwMFggAM+2L/umHXrUnDA3gY2rbBn1Y6I48enOyISDip2RMxqfGRbJmeZEdnXgJMV0d+A0xepGuSZEen455N3eNqu2BERRsSyZkT4DVChQDjI8htYOEBaAcoB4eC09esVEOBnyASEnHJGGi0LpRaSZkgEhVKAkKEcEBIACEgzzHz9/+t5SEBXxqKAgNcUQALKDdGLAHMWAAA88G/AABUCvgbB+NgqKAAYTJ8ypTAY0Fcwffp0wXH++efLJz/5SXnuuWgeNk/W1wGNgIPBgIZ78H8ZSheDajBsWN/0RTY9MhUK9BpolYKpUGAqgSZErVJg6WIOGKAlMNsCs0pB0wkNWiVngUHD3gYzZ+q45SwwyOqIyMZC8BvkgQEbBXHzTKUT2CqZ+XbjN1AwqNP0yKoG1m8QwODII1NGRKQMaEKEERFQoGCwbl0fGKxfLwCD048+Wo9T1q3TSggLOEExSKYwppSDqEohVg7KVCnUVCrkAAGhgCkXdo48au3L5YDzPuKAUBIQir7CNGs0tCkEhYLrn5XJ++6bCwbsa7D77rvL3nvvrdDyjne8Qx555JGip+xfN4ARcDAYwGC3y6+yqgG6ImapBkwpEBDi6YsxIKAr4kBUKdi0ArwG9BugI6K2S6YZMQKEMJ65QpVCMCMmm6l9qlaJ3ZQwMteuEnqyGQZAoBkxaZkMI2JmlUIFMyJVA1UODCCccfTRCg1IWzC9kFfOiOuyoEAw4KppBdMQKQ8U6DHgatMKmamFRFkBJFhQQEUHAMFVhL4nexgUy6gIWa83UCKaKUmMgYD/RkvkffbeOwUGo0eP1rLE2bNnq1fg1FNPlVtvvVWQ0vS39o6Ag0F7359+OTurGlgwyDIhNgKDvCoF29tABywlrZKpHExnR8SJE8WWL9qmRxhzjMMqB6FVcgIFAQzgM0gOpBPYEbFqlUJmOoEbJ1slH3SQdg0MknqGapBVpWDnKLSiSoEmREABweD0RDkAGJx5zDF6QE3AxpyqVOhv5SAqX7RgwFRLDARQDagcsNwT67qjTlAVode7KkL+xxM/UgEAhXqwAJjA17YyZUAYsOuCa74l441xcNKkSTJv3jzZtm2b/Ou//qv87ne/65fXMv+h/RMBB4P+iWvb/1SqBiGtwMZHTCtwPPOIEQIjYmxGVMVgzBhB8yMLB3bQkoUD2/jIwsH0yIyo5YuTJvWNZ548uW88cwIH6GnAvgb0GqgZsWJHxCyvAVsmI61g4YAmPpb9xaoBzXnIt8dPygoHyfTFuPERIIGqAcoP63VEtFUKaHykXoM1a9RTUGNGBBgkB+DgDMLBunX6O6iCNEwtmCqFlHJAn4ExJdJr0KhKQeGgaGrBdJAkJCBmhAS7OfXy+1AB4mMg43Hwa/9V+xGsW7dOPvShD8m3v/3ttn8N9BPMj4CDQX5suvozQTVgq+RkwJI1ITKdoGAwalRflYLxGzTsiDhhgnAss4JBhtdAwYBzFDKmL86GarDffqoaZIGBphMywMCqBnbAEmcpwG+QBQa2t0EeGFivATbLOJ1QBgxs0yMLBmGOAlslJ02PQkdEVCeYCgVrQsxSDQgGZ23YIGdv2KAeBJx3PTAgCHDVVEKikhCE2NMhValA5SQq4wQQWMUgVCnUSSUQBrBSaeEKoAIgrDr+VbLg0s/0vB9hIEEg/l0HXP55Qd8BtDp+8MEHu/q1sxcuzsGgF+5yzjVmqQZZfoO8KgU7RyFlRkz8Bmh6xMZHCghmjgJVg/4yI1Ydz1zZjGgAgU/OFhBQx0/pnEY7bnqqGsQtk9n8qE6VAlQDNSPmAAJKGNWMyLRCohqcdcwxAkCAogAYqUktGC8FIcgqJFmgkAkIUetoGw9CggUFxqcmtRDNnrBxIyRgXbfuRIeEjM6K8SbeH/9e9sqbtdQQzYkACCtWrJB3v/vd8sILL+S8+viH2zkCDgbtfHf6+dxCXwOjGthWyXaOAr0GjaoUdDRzxSoF6zVgR0SdwpjhNWBKIQxYmj5dbPlimMAYmRBt+WJWlYIdzVy3SiGp/eeGGasGNCHSnc90QjDXZTQ9slUK6GvA3gZlqhTUb2C8BrZKwaoGqhwce6ycfeyx+nvqKQd2ngIVEqse5JkQ45SChYEABAVTCoQBXZNOkoQCVV2SlAzTMuvXnShHbnmVLLjss7KfT3rsdzXl0NNuSBkP0aQIsxDQpOjyyy+X73znO/38auY/vpURcDBoZTQ78GddmHRDpNegkRkx9ho0PZ557737Bi3VMSNq46PJk9WISDOigsHUqVJjRjRpBQsHNCMqGDTobRDgYOFCsYOWgqs/aRgUHPwNzIjcEIN0Hj0Bhw2OVQoZXoOqjY9sWkG9BsaMyLQC4ACfw2bfCBAsJFSdqUBYCnEBHBQEBGtKRNwACiF+gIMIEAhb69e/Qg46/6Myy3sk9AskHHTSW1NgwAZGaF7EqYpbt26Vz3zmMx34Ktl7p+xg0Hv3PHXFVA0IBlVbJQcT4tixoqpBVL4YvAYTJohWKRi/ASoUskyIVA3KdkTUrohJN0SdvsgqBTNHgV4DbXqUMUeBJkQFAzNHgSZE3UCjjoF8ig759ijHXgQMuJHFJsQiYAADYmxCLAIG5xx7rOBA9QKuAcAToCdSRphGyFQOkhbR9vqtGbNRKsHGJygrUR8IqxwQCLhCLbAHSjQRT3o3uB5z9FY5/LQbZOFln+2XTbI/pPp2/5mHrDg2EwwICFhHjBih0xTnzp0r1157rY9cTr0St9c/HAza634MytncevPNMnyPPfoaHzGtULVKYezY0lUKdo4CAcGmFUIJ45QpDasUWm1GJCDUq1JgHp6bJjZX5tztxhiekBt0RKQczo0sTitgjkI8S6FqlYJVDQAHUA6wQTdSDnitCgjwVxTob5CVWgAshLhUVA5UNSioHLANtcZ25Uo5ev0rZPWWS+WgCz4qs97wmINCRY/CwfPnNwQDQgL6G2AWArwIF154oTz66KOD8rrnvzQ/Ag4G+bHpmc9ANZg3e/aLHREbND0qXKWQeA3CgCVWKTTZKrlRlYL1GjQyIVI56I8qhTwTIjZeGO3UhGjK8fDkCylcVQPzpEuvgaoGraxS2LBBTYioUkA64ZyNG/WAcoDzU+VgyRKdwEj4oaciBQamUkGhiMOlOJoaa1SpYIEggIGZxqhGxKjhkfY3MPGiekDFgKtVDQhZKSCIUjUWvDYcs1WWnw414Z8dFApCApobzS8xQAldENESGUbFnXfeWYcmoZ2zv7VPBBwM2udeDOqZPPBv/6ZgwJQCvQbWjIjyRZYw0oyY1xHR9jYYqI6IdvoiGx+FtELJjohhPPP8+WJLGJebtAJ7AeT1NrCqATdGbILMp1v3fU2uPBmypBuaMSIypVB0PHO9johsfATVgGZETSts3KhphVg5sHBQGBBsV8iSVQohtRCBVAxUdQEhx3NANQYrwYArYswDoLACoLDNQSEvnbH0tffJ1MmTMxUDeAxgRBw6dKh+HmbECRMmyNKlS+VVr3qVdkL8yle+Iv/zP/8zqK9//svTEXAwSMejp/913VvfGlQDgoFOYBw+XNAV0YKBVQ1gQKQJka2S88Yys3wxHsvM8sXKHRGjscwLaUJkq2T4DOg1mDVLbG+DpXPmCAcsLTN+g2BCXLAgmBBTYGBMiJqTb2BCpOkubHh8Is6oUNAn3eTJ1s5RIBhoOiHpbfCK1asFh52lkOc1YJUCUgZ5YHDuxo2CA7AAv0CN5yBjpkKVVALiwZgoMEExqGBCxMhpHEExqGNCTCkHK1cKY6tQcMQRoRJE44xhVslAKw612njMSbL2xG2y4owbZdG2f5bZnn6QpVfeJ+PHjxekCOAjgNkQAIBUwcyZMwWmw7e//e3yqU99Sr73ve/19Gtsp1y8g0Gn3KkBOE9NKcyalVIO+s2MOH68AA5iQIDfQM2IUZXCzH33FXZFTJkRTVdEO0fBjme2KZnZxgAAIABJREFUqkHKjJgAAuYoZE1gPHTePNG+BvPnC70GRcyIdO63woxoASF+ouVmZTsiEhDQ/KiqGVHTCsceq3AAeIDfIPYcWPXAphXUcxCnFoznIhgTTYfIuqbEHFCgaoCVigFXAgLXrHJGmjwtKDC+XFU1WLkyqAcKCREoANA2bjhZjjpxm6wkLFz1tZ7xKky/7mey8dQrZcyYMbJw4UJtcPTBD35Q7r//fnnmmWcG4FXLf0V/RMDBoD+i2sE/kx0RmVIAGKhqkNEqWdMJI0f2dUQcNUpVAyoHeVUKk8aNC02PUmBQoEohmBBNq2TrN6gBgwzVQMFg1qy+CYwVqhS0t4FJJ5SpUog3QKsc2A0ubGhIJyQpBSt5h6fZDBNiIzCwTY9S5YtMJ2zYoBUK8BtQOYASwXRJqlohQzmwYFC0v4HGJemKGPwGOUCQqlaIZypklC8ilvQc0LsBGLBAANUgpRxEqRsbb8IYFRuOxVY4W71asOIebDr2FD0AC0ec+XZZ/Op7Zc5VX5Op1/60o6Bh2nU/Exzzr/6GrLz0Dj22nHGVnLb1fLlg82Y9rrnkEnn++ec7+FXPTz2OgINBHBH/t4SUgqlQKNMRMcDB2LGiHRFZwlih8ZFtmQzFgCWMVRsfNTIjIq3QVOMjY9bjkzSrFPLMiDTa8Sk49htYOOAGZjcrblLclLI6ItpBSwEOkvHMTCtYr4E1I567aZM+NXP8dE1qISrbtNcdVJO8mQpFlQO2TcbKFAxLGbGayZW5ygH7RBjgQmyt38ACWEo5SNIKGvdVqyQFCAA0tqw2KwDBHkz1bN54quBYv/VyWXXWO2TJq+/VA+BAeOhvgOCGP+/qbwiOg674F1nxqttlxSW3y/rz3yPHn/6GAIbnbdok9jj/uOMExwXJ+nc33eSvml0WAQeDLruhrbgcpBTQLhk+A3oNrAmxakfELBNi1VbJNp1gpy/2Z0dENSEuWCBWNcA8BaoGfKpWmT3Db6BgkNHbIAUGxm/AZj0WDOxmhc0pbFDYkDK8Bieht8FRR0meCfF0M2ApCwxUNdi0Sc7csKGvUiFjGiNBgCthgCtNmEgjxKkEmjIbVSlAXVEg4FoHCqi4cGUcGykHjC1XQIA9NN4ZqQRAgQUDCwN4n0DAlTMucG/0/iT9J3CfeK94v16++QzhseHk18rqc94ZjjXnvEvWnPNO6VvxfnKce5OsNcemU18nOLa+/OxgMgX48WAfC1alUCkCDAAKCQUEAq6qGBx3nPyTVxS04mW3rX6Gg0Fb3Y72OZm48REBIc+MWKRKIavxUREzYt3eBlFHREACuyJmVSksphmxUZXC3Lkp5SDlNcgzIy5e/GIuPnqKpmrAjdHK5zTchSdhAwcqhSdyeJC/I6k7AEI/mxHpN0gpB0Yhoe+AgMA1BQhZykGBckbGSAGB6kGsHCC1UMRzECsHJl1j1QMCAtcUJOQBwqpVmk6g74MqjoWFFCAkcy5SgBA1qrJqDxpWadOqZA4GzKR2HoaCHmAvAT6qQTSaYiUAcq0BhKR0lYDAlYDAlYDwZR+a1D4v3C06EweDFgWyG39MSCkY5QBggAqFVlUp2NHM2hFxr71EKxQqtkoOYMAqhenTJW56lNcq2c5RKFSlkHgNrGrAjohFqhRCPj2p388FA25kUf09N6qUapDkuO2TKjedeIOxG4rdQOyGgadJuzHgd6bAoGxnxCwwiHocMC5c6cXgqgpLhnLAFAJXKgZcVTEo6DkgDGBlnLnaSoUQ+ySdUEo5gGKQBQaJwhPfrwAFCQykoCAZlGXBABDA+Ri5QJD0sNDUUdIBM1YOrGoAKCAQcH3q8ce78eWvp6/JwaCnb3/9i2dKQY2IQ4aIVijkmRFHjhQtYaQZ0ZQwNhzPPH58ejxzBhxkqgaTJ4t6DWhGbDCeOavxkTUj2hLG/mx8lFINbOe/5EnYeg3oN6AcbnPi3LywYWGzUq+BeWJVOFi9um/ziaoUwiazbp1OWQwbCicwJuOZw4aRmBGxweD84yqF2JRItQBr1ZkKBAOuCgYFTYmEA8aPcBAUmAKAgPjS0xEAwYBCXpVCnFpgioeqgXpATIpB4SAHEOLUAu+bqgYABKMcYFqmHsY7EpSD5L5mAoK51+F+m4ZXBEMAgoUEBYNNm+QPf/hD/RcS/2zHRcDBoONu2cCeMOBg/pw5fV6DEh0RtbfBmDGifQ3GjOkzIe65p+yz5546S4HdEJlKoNdgCroimgoFjmUuYkK0FQr0GsyHcpCoBllgkNfboAgYZE1ftH6DWFpnOiHPhEiZXMHAmOm4manXgGY5phOSjSo8udL8ZvwGfCrV8kXjN0g9cVJ6xgbCCoUkD82mR9wUIIXTTxEDAa7ZQoGCQVy+GHkN4lbJcfVGCgyormQoBtoZ0cSNcGChQGNJBYZrXKUAZSaJL+ErgIHxHYQUTlIdkgUEjVIJiGUjr0ER5SAXCEy/CkBBJhiY+6xgkHTADECQQCFTCFwBBlddeOHAviD5bxuQCDgYDEiYO/uXsIRxZNkqBaoGo0f3AQKrFBI4mFihSmHGxIkyY999BbMUbJVCVTNiM1UKKTPiwoWClEJIKyxeHCR3CwhsBARDngWE9YlygFx6yoyY5MwJB1AOrBmRGxhVgxgQqBroBpRsQmx+xKdPPnVCNVDlINpAsFlww8Bmgc0F55nV36AGFBITZjPKQWxMVL9BQeXAVisghlZBUBWmgHKgvgMDClsAYxWVAwsKVZUDgALvnSoHUA0qKgcWFLQ1dpHUAkAhMSW+/9prO/vFzc8+MwIOBplh8Q/GEYDfoEyVAloljycYUDmIwCCrSkF7GySzFOA1YEdEKgcAAztgieWLAAOMZOZYZnoNqBzAiKheg+nTxSoH1m9wYNLfIB7NnFe+mAKDDL8Bn6oVDEyVAl36cZUCDXYpMDBGRJtOUCOi3aysGS5DNUg9mRrVIEjSNkfdAAzwxIjvw/WlPBXGb1BGOWBqRZWDEuWLwXMQmxBLli+GaoWcaYxWNWikHMRgVsSEiHuTuj+2SmHtWq0ooWoQQ4G9f0EBIuDRhJisVAy40kvClQCoEMhUgvGYUEGgYoD1nptvjl8q/N9dEAEHgy64iQN1Ca88//zQMjmv8RFnKcBvoHCQ0fgo1dsgHs9csiMilYPgNSAgGL9BTeOjBA5shUKhjohJu+RD2BFxwYJSHREpsQeXPiX1jBJGTSskJXmxJI6NzKoG3LiCOa5B46MsMyKfOCFJa17aSNDYOPA0ybI2bhA4R86LsJ4DKiRced1cef1cLSgFSKgKCGY4VezViOPIFAOBKwBCEl9boVCvv4GNO42J9HtgtXBgFYPgOUjAIACCUXZ4r6jylAaEBPh4T63JtAggBEjIAYQvP/DAQL38+O8ZwAg4GAxgsDv9V8V+g6Y6IjKdkIABvAb0G1jVwPoNtFUyUglF0wlTp4bSRXoN1G/Ajoj77y9MJVgT4oED3BGRtfw2l25Vg3hDIxhw47JgYDcmbkh2A4LfIKtVcg0YJKoBpeaaDWLTJn3KtUCANELdVAK8BhXGM9fMVEAaoUIqoWUzFUwaIaRwrGJTz3Ngmh4pCFQwIZ6SlCxCLVDFoGIqAV4S3l/CHydt2vudVaXAVMIzTz3V6S9rfv4ZEXAwyAiKfyg/AuxvAL9BVpXC2GTYEtslB+XApBVaVqWQeA2samA7Ig60GVHnKERegyJmRD4lW9MdNz4AQvzkS79ByoyYTAlk7rthlQLl6kSqDhuMcbbT0c7Ng5sGzYj4OK+PfgMLClQMuFIx4ErFgCviYNUD68FgbGK/AWCKKQWuClUmbnH8YtAKygHMiDmeA0JYIeXAQEJILVRRDkw5I2GuknJg7mmoPjGKEO4j7zHTCgoK8JbkeA6gGl1w/PHy5z//Of/Fwj/TsRFwMOjYWzd4J37rLbfUrVLYc8QICWAArwHTCfQaxFUKDUyIVjWg16BIlUJWR0QqB/FYZioHqFKwXoOs3gZIJTCdoI2P0PCIHRErgEG8AXKzS21wdNsnUwSpGgAOdNNilUJSuhg2pIymR2WqFHTTiKsU6FrftEknGhIK8vobYKgUB0tlQYHCQE5/A6opCgZtNo0RaoH1HJQpX8wsYaTXAKmEItUK69alO1o2oxwk97iMcnDd5ZcP3ouQ/+Z+jYCDQb+Gt3t/+PXXXpsyI+Y1PirSEdGWMLKMMa/xEc2IlcczT50qeR0R1YjIjogctMQJjBjNnDOe2cJBlmrAPLw1I2KDpKwenpJNox/CAb0GaH5Eh33qCdd27TNwoBI3WyZnwAHNbvYJNEjT5gnT5qT5NEmZGU+NaKCj15d0fbSKQWZqwZQz4vo1Dkk5Y2FAiDwZGiujHBCoQsMotk+Ohy4ZYydVmDzFIHSd5CjsRKFhGqcyIJiGVDblo/enKCBEZlKr/oQmVonXwCoGuHf2/sbKAdSCoByw+RFNiRs3ys1//dfd+wLX41fmYNDjfwDNXD7hgAOWWt0RMTV9MWl6VAQMbOkiqxRQnWArFNjbYKHxG9gKhQNMhUKWarAMqsH8+ZJqlbxwoTQay6w5+HhDLGhCbAQG3KSsGS4esKTli3wyjVrvxmCgqQQjOWeBAeBATYhJhUIAg6RCwXoOqBZwZQqBq6YSklhoemXpUi3ptGmEQqkEU6WgQBWZOOumEpLeBqrIJFUKMRQwzlwZb65Qa+xBIyI9H1wJAlxpPuSq/Q0ylANrQCxTpRDKUStUKRAGmUbCfb//s59t5uXDv7eNI+Bg0MY3p91PDX6DV15wQUgrZJkRi1Qp7DN2rOCwsxTCeOaSVQozk/4GoUohKWG0foPKVQpz5og2PqJywJRCRpWCHbSEPLzNxXOzjDdIeg0on+NJmMqBPgVHG5xVDkJKwTzJ2o3KuuPtRlTYjBgBAp4mWaUAU59eX3ydGLiUMXSpkeegrnJQolohVzkw6gshASvjGdQDNkAyVSA2zvQdEBC4hrgnzZAICQQEC2uEBKy8L1wJCEE9yBq6VKecEYZSVQ/sPIUs5aAkKPC+P/HDH7b7S5SfX8UIOBhUDJx/W18EAAcb1q9XI2IWGFi/gS1fREdEdkVUMGCVgvEb2HSCdkTMUA3YKtk2PZo1aVJfq+QpU2S27W1gVAN6DapWKWhvA4IBlQNTvggwsA2PyoABn5BjMIhNdNzI6DeINypsUHlVCnY0M41tfBLlZsIWu9aEaLsicoPA94XrK5BSIBBxpWLAlakVKgjWg0FoKqwcZHRItDAQA0EMBYytGj2jDokEAa4EAq4KBMaIGMCAfSaiFE8WEAQoyFEOGrZMNnMVeD9j5cDOU8g1ISZNrqgcXLhlixsPu3gTcDDo4ps7UJcGOFgwZ05flcKwYRL8BiNGiCoGNCOOGiXjCjQ+qtoRMavxka1SyDIjlm18ZNMKeY2PDqtjRkQ+niY9++SMfDuflG3jI26A6jVINjkFhDg/bp5qrXM+hgMO+cEmZOFA6+U5vCd+0mTDnMi9jk0CB8ABYMCjqOeAYMBVwaBgOSPhifEhRKnCUrCcEVDA9EwuIORUKaTSC6bRFCCBlSEBEAygARYsIPB+5CoGFcoZmRLiqqWoFTsjnmWmMWqFQlKl8I6rrhqolxf/PYMQAQeDQQh6N/7KJwEHc+eK+g0ypi/ShFgEDFrdETGlGpixzKoa1OmIqHMU6lQp5IGBdkRcuFDsLIWwaRp5XcHA+A34pGzBgBteDAb61MsKhWTzwmalG1YdE6JuRGaOgj6RUqKOTGy2k55VDazXQJ8gN27UlIe9xuA1yEolZFQpAA6oGGBlLEJ6JRnNbBUD7W9ghlDZWIV4ZSgGgAELBBrLKJWgyoH1GyQmzxgILITVVQ7qAAHTCVQMuBZKJRDmzEog4Mr7yDVLMYhVg0bKwSdvu60bX8b8mpIIOBj4n0LLIgA4QNvk/jIj6qClCRPEjmcuYkak38C2TJ5nAKHVVQqHzZ/f1xERykECCDat0IoqhTzVgKY5u2GFJ9d+rFLA71MwWLSotHJQU8poKjYCJBQoZyQYcAUcsB9EI1AgHDSjHAAMOLtClQN4DEwzpKLljAQDrlVnKigYmLkKZZQDVihkAsKGDfLNr361Za8b/oPaLwIOBu13Tzr6jAAHjcDAeg0whZFeg6qtkrW3wT779HVE5CyFSZN0yBL8BqkqhQatkktVKcydK0vnzhUoB9rbgF4DgkE/VylwM7Neg0ZgYI1vYeMxZXH1yhfrVSkEMLApBc5SMCoJjZdUS7AylcCVygFUAwUDVm1ANchSDjLKFwEHCgaNpjEmQ6oYy0wwyDIhmrJFXLsFsf5SDmAUTSk8bFJ11FFivQbWK0LVACsVA6zNTGNEJ8T/feGFjn6d8pOvHwEHg/rx8c9WiMBtt9wS4IB+A3gNbIWCphQiv0GZjoiqGnDI0t57S6rxUQIHdvqi9RrYCgWWMNKMWLbxUZHxzFmqAZ6uKbdbrwEldWyK1nTHXDqfgOG4zzIjog5fjXJsfJTXEdEY4AAIweRmNhtbCmc3kzitgNwzPApWFWFagdfJa6W/IgUISWkjwYArAYFrbEZEWgExsn4DxomqgQUExEyVA1POyBhitXBQDxCCIbGVQ5dKdkYMDZBMi+vYRFoEEPS+0kNScOjSmy+9tMKrgn9LJ0XAwaCT7lYHnSvgQKsUjN8APoNUR8SkTXJQDcz0RW16ZCoUOEdB0wl1pi9W7Yio6YTp03UCo52+2KgjYhEwsF4DO5aZm2UhMGDpYjyWOa8jIp9ojd/AVigE05vxG3Cz0Q0GOWuaEJOnzZCb5hwF0wAHYGBhIABBgSqFmlRCohQEICjoObAwEIDAKAe55Yux5yDxbgQlBh6OgibEVqQSaroiZg1ZyqhSgGpglQOoBLyHQTEwykG9KoWU58B0RYS/5M6/+7sOeiXyU60SAQeDKlHz7ykUgTitYFWDMmbErCoFO2gJPgN6Dagc1BvPnGVGpHJQr0qhKTNi1DJ5ZZKLL1ulwM0v5MxNVz8+5XITY4kdZW7mu7MAgapBSjkoYUbE91Ex4FoPFIJysGSJEIy4UjHgSkDgSmMi1AJrTiyqHDDFoJ0RjfJC9aChcmAgIagHRqEplVpIyhlDpUJJ5SDcr1YoBybFwLQRVus3wPvf+Pd/L/T/37+ocyPgYNC5964jzhxwMNqoBkwnEAzUb2AGLKnfIGl4lNUqmcoBwCDLhFgEDKwJESWMCgVTp0qVKoWDZ88OTY9slQI6IrIrYqpKYdEi3UD1idqkE4K0XqBKIaQTjCSum1mFKgV1xBvVQDeaOukESs92w8BTZAoMjM8gXGdB5cCqBwoCplpBgaCACRHVCgQoVQ4Kli/WVCscfrigeVOzyoEaESuYEKEcWPWgqgnRqgaqHEA1qKgcwF/wh9//viNee/wkq0fAwaB67Pw7C0YAcLBw7lyxLZPzGh+FtMKYMdoNsXJHRI5nNn6D0Pho8uTQ+Mj6Dcp0RNRBSxzPTDigGbFO46NGLZPx1Bw/KfOpmE/E3PTsk6/NkYeNrGBvg7hcjk+hcc46bCrJkyWfKvEUCRVi+aJFWqJJxYArlYOi/Q0ABxYQEA/OlQAslAEE6zlQoKqSWoh6RiC+VGWsYhDKRU0ah2oNDYmhWoG9DXIaIIVUT+QFCYbRov0NGnRGLAsI1195ZcH/9f5lnRwBB4NOvnsddO6Ag0Xz5ikcUDXASOZ4LHMAg0g1sOmEyh0RJ0/u64hIMEgqFOZW7IiIZkdseESvgVYp1AGDvI6IbB1cFgw0b16hVTI2csrXhcDA+A3oaFcwSPwG+HkEAa4EAq7wVNgDKom97sKpBDNPgdBUxoRogcrGr3AqwfQ3qAcGFgYsEMTlozUtkw0M4N4QBrgC3OyhMxWSXhTaqCqagVHKhJjRMtmmErx/QQe96DZxqg4GTQTPv7VcBBQOEuVA4YAdEQEIyXjm8SatkFelEOYoTJggqd4GGV6DImZEqxrQa9CfVQotMSMmjX1CWsHkypkj55NtXpWCeg0ICGYzot+gxoyY1MTzKdMCAjZbXpcqB0nKhJCANQAC0gpFUwtWQTFpllLKQVTOWEo5qFOtoKqB8RswzjXKQUY5I/0eoTNlBeUAqQXeK6o8vGcWEGJTYhYo8J6G6pMMQIAh8fvf+U65//T+1R0ZAQeDjrxtnXvSgIPF8+aF0sXMKgXOUTBVCjpgqQOqFOxoZu1twAFL7G0QmRC5YeaZEFVGT+TzVPligyqFvHQCXfNhQ2JHvgQM7FMpn0RDbwOqBhzKwzK3Y47RJ3+CgYUBXh+hAKtVDViZAeWAigFXplS40nzIVcsXMzwHTLlwZeqFKxUDrnY8c1PTGKPUTSkTopnIGCs5saJj71GNcpBUKzANFO5dhc6IoQolKWN85Qkn+HyEzn3pLXXmDgalwuVf3IoIMK1gqxQ0rZCoBkgnMKVgzYh2+iLaJqsRcfz4tGqQDFqaxt4GceMjTl9k46PJkyXPjFi3I+LMmWKrFGxawcKBjmfOgIOs3gZ8ig7yOp+QEwOeboRJg59U7jyuz49y4pC7VfKOnlytpJ3X+EifRCNpGl4Dlr9RNaDBktdlUyYEBQsHARAMKOh1Jy2UCQdYCQZcCQZc8zwHBAOuBAOuCgY5ngOmFax3wyoxBC+qMkU8B5mphYKmRMJBodSCaVhllQMqBVx5H7lCLainHLz/+utb8d/ff0YHRMDBoANuUjeeIuDgbddfH5SD4DUYNUqhoAwYaOliVKXAbojTCQb77it2yBLbJLN0MSudYHsbFOmICJ+Beg3MWOYUGJjpi0VMiDTghQ2Q5XmxNG7AQDe0imDAzSd+IuXmEm8olJ2x4VkgaJRKUCjIAYJQnYGmRxkmRMBBiAeNiIxLXmfEZcsks1KBccM8hSIzFVClUGemQm4qIWqVTEAgmFn1pt6QJa1SqOM50DRCgf4Geh8TuAtQUKBK4YHPfa4bX4r8mjIi4GCQERT/0MBF4G3XXRcmMKbMiBEgwG+g45nHjhWrHAS/wfjxYgEh9DbYe28BHNQdz0wz4pQpYicwNqxSmDlTliTKQapKgYBQoEpB5XdTwsgn6aAamCfmsCEmG2D8JIwnYG5w9kmXT7c0ysUSNzemWMK2gIBNh/K0BQQ8Ya4+6KAXZ0Mk8yFiUKBqkJlaACQUAAUqBlw1HgVBgbHCSsWAa1HPARUDrhpXAwqFPQdZ0xgLKge2WoH3h2uZckbeQ6yEA66qGmSAwv/8+tcD98Lgv2lQI+BgMKjh91+OCEA5CF6DkSOlSG+DIlUKNp2QCQY5VQowIGaZEK1qwI6ICgazZgnAwKYTWKWgvQ0qVilQTk9thElO3brwwwaXgAFlcLuBUerGU20ZMNDNJpGmU2Bg0gmaRsgBgsIpBc5TyJrGmKgHjANXghJWNj2yVQraMjlRV+qCQVnlIFJkLHiFtE0XTGNEmoh9K666+GJ/seqhCDgY9NDNbudLRWphyfz5fYCQUaFAr4EOWtpzT1UNWj2eOctrQECo1xExpRokgJDX+AiGxFTjo6JmROM34CaoZkSTVrAVCsFEZzYxCwccH2xlba1SSMyImlag652zFDLGMwM0DmOKBHCQBQjRhEmqB5meAzt4KSlnJCBxJRhwtYCgkBCnFiKFhZBAoOJKM6JVXqDAELS4Eri4Egy4WjigSmOBLAYzew9S6YUMQyJUHaZ8uFIx4GoNifSIMB1EuCtrSrzrIx9p55cPP7cWR8DBoMUB9R9XPQIKBwsWhNLFLBNiETDI6oho0wnWa4BBS/QbZIGBTSdgwFI8ZGnJ/vunTIhUDoLXYM4cnb5Ir8Eh7IhoNtGy6YQABhgiZMGAT77siJhAAbv3hQ0Lw39gRDRzFDSdUGAss24wplUyWjs3BAM0PjLlizVAUDCVEHsOaoCgqHIQd0ZM4kYw0HRMAc8BQICxxftlUgmMPaDAwgDTOoS0ep4DgECqMyL6GxRtfGSqFGo6IyZKgZoRk2ZW3//2t6v/x/bv7LgIOBh03C3r7hMGHNx4/fUvNj6KvAZUDuKOiLZKwXoNAAk6R6FilcI80zI5VaUwY4Zg2NLiGTMEcEDV4ACTVrCqAcczExCoGmBT5VO2ld3pNWA5nz4tUzWIxxEbOMDTb9jgMuYo6AZWsEohfiLlkyifPgEabP2s15OlHBhFRAFo4cLCjZBClUKSZqBiwJWKAVcLCoQnrCzz5ErFgCsVA64hfjFoMZ5RQ6lGyoFVDZpRDugB4cr7w5WKAVfeL1UNaEo0XhGqB9ZvkOU5+MuTT/Yyxe5+2a25OgeDmpD4BwY7AlddeaUAANRrEIGBbXpkTYgNwQAGxOTAgKUZJaoUrGqwIEc1oNcgBQY5JkSrGigYLFzY5+rPMCEqGERjibkBFilfrGdCzEonUDmwkrXdaNT5npQvIiVgAadp5QBphAImRFZrZAGBphIKKgcEAa4KBBasjJkzpGYABVRiuJp5Ck0rB0ZBYAOqrM6I1oRoVQPcKwsEAQoIBpyDgTVjGiMNiFhZvnjzBz4w2C8J/vsHOAIOBgMccP91+RHAcJaLzjsvVB1g428EB3bQEvoapHobJOOZ96vYEdFWKNBrULUjou1tYBsf8UkbqkH8RE3JPaUaRFUK9onYPgHDb0BJPM6Nc/PC06t9glVZe+VKnXtgJWw8kcZwgJ+vakHimQiAkDRyCkpIlucgSi1opULVzoiJigJI0HkKBasUmIKxMQuAADgoCAgpSIjKGaumFngfmGIoAwipewVIMKCgUFcAEGLV4Lvf+Eb+f1r/TFdGwMGgK29r513U888/L5s3bHgRCpIuh4AD+Arivgb0GigYVOiIaFUD+AzoNVC/wZQp2vQoCwxsbwOkEjSdsP/+wioFND3S0sWoSgFgYKcv0oTYCAz4BA1Z3UroQTWgVE73PTsimqddBQNjQmQ6QcHADPxhvpv5bZWsTUcap8rwAAAgAElEQVREPoni4/b8FRAMEAQoSJSQULrYYMiSBSHAEA+dqZCoJowBVioGXBkTrlRUQqUCPBkHHyyEAa4EAq5MJXC1nREJWSkgiGKL+DLG9HVoOgHeDlMVUsWEqMB25JGSUgzMPSLAZSoH8TwFKAZ1hixBNbjQux123otpC87YwaAFQfQf0VwEnnnmGVl56KGhTwE2eyoBTBdoaiGjIyIBAV9XpkqhqhmRykG9KgXbETGYETmBMQcQDps/v89rECkHMPfRb8Ccu90U8ZTMfHqRKgWbD8+rUmAffythax47qVLAhk2vRFA/qioHdTwHCkVFUgsZ5YyVpjHGXo2qykEGKDDWKb8BTaCEs6gzJUCNsFbGlJjlOSisHESg8NH3va+5/9z+3R0ZAQeDjrxt3XPSX//a12TRnDl9UAAgMA2MCAXc8PFvAAIPhQJMYWxQvphXpaCqQTKWGZUKVjmYXadVsqYTpk3TCgVWKcCEqKoBqxQSE2IAA3RDZEfEuXPDxmqftq0JkS5+hYJkc4ybHnHzC2AwAFUKeGImDHDlNXCl14Crva6gHtQBgrrKQZWWyW06jRGKAX0eeJ8gwJWpBK4ENa40IcbqgVUNGikHNJLmKQff+frXu+fFxq+kcAQcDAqHyr+w1RG45+67ZfJee2mqAJs8j7jDoQUEvI/P7zV6tAJCbkdEzFBIDq1SSPwGoSMizYgwIhozoqYUTAkjWybbtEIwI06fLtaMCDAgHNCMqGmFjPHMVRsfqd+gjhnRSuVWGrf1+FY1oORtJW67Mdm0Ar42VFfMnVsMEEyKQQEh8RzQT2ErMXL7G+SUM0I5sS2UmVLgqimFgp4DphWwMm5cmVLgSu9GnGJgXLkypcC1qOeA8edKMOCa5zmAUmAhIRMQCngOWKVwySmneDVCq1/0OuTnORh0yI3qptP8/e9/L5dfdplohcGYMTVAUJNKGDdO2OmQ6gHWFEgkqgG/LmVCnDBBphgwCB0RJ04MrZK1t0GG10DBYL/9tFUy0ghMJdCEqGCQ4TWwYJDXETF+4g5P2FFDIPsEHasG2ASxAQbVwOTQ7cbWDBjwyRQbO4EmTiWw0iKoBjlAYBWDmpkKixdrKWO43sWLQxpFgYjdESMgiPsbpMCAscEaNz4yCouCAWYqGDCAARExbAQE8BvUeA6yKhVYJmqmMFrFAL0NbH+DGAzygAAwYIFAZyokaR8LB/SIFDUh3v5//k83vez4tZSIgINBiWD5lzYfgWd+8hNZs3JlykxoUwMsRwxpgnqphXHjVD3g96jSYNIKoUphwoS+CYwGDrS3wT77iA5bylANipoRCQhMKQyaGdEAQlyvr5tb2SoF5reTKgVs4poKsekQpESKKAeAhAKgQMWAKwGBq5oRczwHpUyJhIUIFKxqYAHBAlZetUIwJR56qA5aomqAlYoB16aUg4LljPQZYLVwkJlaSFpeI61gUwtP/uhHzf+H95/QkRFwMOjI29aZJ/3lRx+VWdOm1UBBVeUAG78qCOPHB4+Cph0qVilkdUSsWqVgmx6VqVLgBoqnc8rtdqOEIc+qBjQiBtWgRVUK9mkVv4/+CJtKgGqQUg7mz09VK+i1FACCGuUg6ucAMGB1xoApB3F3xCrKQVS+GMCgSeUAKQWmeLRKIWljnakc1AGDesrBFeed15kvMn7WLYmAg0FLwug/pFEE3vee96j0j74EbHXMNSgGSCsUSS0YVcCmFug/sJ4EfJ5phZZ2RJw6VdRrMHWq2BJGKgcprwEmMJqOiEgthJbJ0VM3pPgAB2x8lBj1Uk/OdthQxY6IfKqt2bCMOx6yPM41nG+iGKQAwZgpmR7ByrSCvaZQypjX36CEKVEBycYhKmlkSoEryxgDREWKgQ5dMqkYKghUDLg2TC1kNUHKUg6yAKFEOSPgQCGBrazzAKFAOaNCglEMPnXnnY3+S/vnuzgCDgZdfHPb4dJ+85vfyFmnn66NiggCXAkEXOkZ4KpeA1N1EG/4hAKmDLjuO358zZClyfAZJIdWKbDpUZ2xzEwnoEKBJsQ5xm8QTIjTpqVMiEwnwGegXgOCQYYJUTfYOtMXNScfPUGrpG7d+RlgEJcuajrBtPiF9J0FBra3ATZGQoGCAcZIZ4FBcv6EAgsECgVJq+TgoTBtoK3ngMoIV4IQV1431zwwIAhwtUAQQ0HocYBBS5HngCDAlUDAVc2HOTMVGNvMVEICBOxxoDHPmMYI1cZ6Dmg+5KrVCVAPGoBBlVTCL597rh1ePvwcBikCDgaDFPhe+LU/+P735bCDD9ahSOM4MdGsBASuBASsucpBHc+BBQW8DyMiYMKqBgEQMvwGtrcBWybXq1KwcxToNcisUiAgZKgG3HBp6rNP2mEjrWBG1A0wmipoN7hGZkSYGWma5JqCBAKC6cug11DEcxDPVMioVChUrWCbIFE5MI2g6DsgIHCtAYVYOYji1kg5AChopQKGV7XBNEaaRblav0ERz8ENr399L7w8+TXWiYCDQZ3g+KeqR+DvP/IRmbTXXjoMCVCQAoOkUVEWECgUmNJFa0KMqxUIAlypGHAFBEwyfgMtX6RyADAwqgFNiNNN6eL+FaoUkEpYmFGloE2PGoBB/MRdFAziDdA+FZctX4QxDj+PMMC0Rw0UEAySVAjBxnoOMpWDgp4DqgZYqRhwLdr4CCBg5yrUAEGOCTFWDtbFfoMmpjEybYO1qAkxrlagYsC1aLUClAM7V0GrFDLKFx954IHq//H9O7siAg4GXXEb2+cifv3rX8vpJ58se44YIXuOHKnHuJEjMwEBYDDeQIIqBkl/gqAaFPEcJJt/AITEVxAAIZmhEP5tUwrJ9MWsKoUsM2LZxkchrcDGR1HLZDuB0T5xH5rk6OE3YP2/NSNik+QGmTIjmrSCLWHkbABNKSRGOj7l2rQCfoc1S7JBkwICvBGJP0KVDsBBAUCwKkjwGxQEBDZ6CoBgQIHX3yi1EJczVp2pgNjZagWtUKhiSoz8BpUBARUKBasU4nJGm17QrogJIJy3ZYv88Q9/aJ8XFD+TQYmAg8GghL07f+lXvvxlWThnTgoIAAdZioEFgiLKAUsR2eVQ/QYmVUAowEoA4ArlgCkE+35eR0RVDSp0REyNZZ4+XecoBDCAzyA54qZH3Fz51M2NNJgQrdRu/AZ06gcwsAOF4rp9tPuN6/IhfRujHDZtQoEFAqoHNaoBPAexYlAylaBmRGOyJPxUTiVYAyIUgxIzFVjmWaMYRK2SbUqGfgNNJzCeyVhm7W9gvBz0HVjVQJWD2HMQdUSsMlNB0wjob7BqlZRJJdzyoQ9154uTX1WpCDgYlAqXf3FWBP70pz/JjTfcoAAwdvhwGTtihB6qGhRQDmJIYFdDVRDoNyioHLDBUQAEAwrshGjhAIZECwih+dE++/R1REwAYWbSMnnWpEmSMiNOmRKaH2WZEW1awZYw2ioFPoVbQFA4MKpBvIGGJ2hb189N0agG1mtgVQNVDhJJHE/BSAEQXHBuPD8LMQEQKioHmlow1QrNlDNyhoRVTgZKObCqQVBgKigHgAJrTqyqHMCkWFU5sJ4DKAfPPPVU1n9x/1iPRcDBoMdueKsv9yc/+YlsWLdOxhggCGCQpBJUNchTDuqULwYwSDwHbJUcew2KVivEQIBuiAEM6Dco2Sq5bpVC4jWwqoHtiHhgP1UpxCY7Ou9jEx2ecgEOKSAwqQ6qBwQCrlY50JRCrBwUKF/UlIKpVtB0SawcdNM0xqrKQYnyxeA5MFUKoc9BUrJo1QObTsD711x2WatfHvzndWgEHAw69Ma1w2l/7p//Wabuu69CAcCAB8GAK70GXNVzYKoT0NugXn+DGBCCIbHB0CWmF5hS4GoBAe+zjNHOUcgyI6JCgSWMVRsfaX8Dm1LIGM9Med6aEW1agXI7DXp8amb5Xp4ZkVI5AAH+A/ycmn4LccojGgZFOMCaCQiJ54B+Cay8Dq6qHMyfH/oc0GTJ1XoqWlHOyHhwJThxzTQlJpUJhCpr4owBq25qISlnLNUZMU4tJC2UmVLgyiZUXAkGXPPKGS0cWMXgoS98oR1eVvwc2iACDgZtcBM67RTQm+CySy6R0cOH61EXCAqmElLpBDNBsawJsUoqQZWDpHwRaYWpBVol23SCHbDEWQr1xjKzt0H8RK5P36b8z26keSZEphQgo6fAgOkEtkpONjqkE7BBBiDYf3/ttcBzYvVEnEqguqFAEEGBpkCKmBDRGTEGggomxBXJDIWyVQo1JsSDDhLAAcFAzZqxNwNxi/obwKtBv0YzqYRjkUowMxUGJZWQzFS48BWv6LSXIT/ffoyAg0E/Brcbf/SDDzwg82bNklFDh8roYcNk1LBhuuJ9AgJXKgZcqRhwtdUKVA3KKgdBPSjY34CqAVZVDrga5cB6Dmxvg7JVCnXNiHWqFLjR8qkbgFBTpZD0NqBJj6pBAISMCYwAAgAGUhtMbwAQeKgHIgGFkF6oklpIqhVw/lQ/CisHBUCBSglXAgLXvGoFXH8rpjFSMeBKxYCrNSSqKdH2OaAxsUhqgSWNGR0SqRpgpWLAlYoB17xyRqgFrFb45O23d+PLlV9TxQg4GFQMXK99G1SCbZdeGmDAAkGsHIxJzIcBCKAaVFQOULEQUgk0IjbyHGRMY0Q/A0JBngkxVg7Q5wCQwLSCBQOYEDWdMHmyzJkyRQ+rHMCImAUGi2fM6HtajyV74zewJkT2BdCcfLJpMh+vKYUCVQooz8P3EwgUCpLzKK0c2NSHOWeqHTx3CwS4Bl4HVRCrHNhrU5NlTmfEmpkKGdMYWakRAImNj2jMxBr1N4hTCqWUg8GexlgHDPKAIJ6pcMr69fI///3fvfaS5tdbJwIOBnWC45/qiwBUgjkzZ8rIoUP1gFqgR6QY1ABC4jtoGhCSXgeVACHpfEi/QahWgFLAw5Qzqt8ApkSTWogVBHRFLNQRcdo0YUfEvMZH1ozI/D1z92FzrdMymYoBUwqqHCRpBTwhY0PW343GS8lhAcEqB1YxqJtaiBo11Zx3ohjg/MM1JIbEesoB1AyFhLgzYmxKjDpBZikHhQGhTjljYUDIKGfMm8Ko5aFUDTCuuYhykKEYpMY1m9kWVA2wUjHAqpBgTIm2nPFvb7rJX+o8AqkIOBikwuH/sBF4/vnn5VUXXxyAIIBBAgRQDaxywBQCVwIBV6YQuGp/g6RaoVWpBNvnwMKABYKgHCRAYM2IBAPCAFaaErlCQcAxIyllxBwFnaVg5ijQa2DBgBtykO4LtkrmUzY2TW6cVjWIN0b8Gxsy2jOzRTOggL+fK8+DK2CAJZUxGNAPgZUgwJUgw9WqBhYMeB1ceT1caT7kCuMhr9OaEG3TIwtEIZVgWiXXUw6oFHCl14ArjIcKB3HL5AQE+j2VACBAOqERGCQjsgkFFghiKAhVChi4lKQSnn7ySfvf3t/3CIiDgf8RZEbgSw8/LPNmz5bhe+whI4YM0WPkkCGiR5PKAUChcGqhTjlj4XHNGdMYC6cWTJ8DwkIABFviOHGioNcB0gs2pUBAyDMjqpTfoErBeg2wqSocmLSCphSSTRQ9EQAjCiQY7pQMeLKA0JRyUMJzQK9EjXJQoJyRVRgNUwt1pjFCNaCCUg8QoKzgICBwJSBgzQOEMtUK2mkya+hSoiCwARLXvEZIqaFLJcoZoRooKBjl4LrXvS7z/79/sLcj4GDQ2/e/5urhJXjNtm0pIAhgkABBSjlAWqFZ5aBOy2R2RbReg5BSqDNTgb0NOETJqgdUDLhSMeDK8kWAgE0pEAi4Ujngio6JMCtyABN8CPAfABTywIBP6DD78akcT+K26VEeGAAQ8DlUDBBACAUxGBAGCisHiZphlQOeH1cqBlypGHBVIMioVqBiwJWKAVcqBlxZvqgKQmS6tOoBFQOugIG8lAJhoBEQBCjIqFaAYsCmUXif5kOuNSbEZMiSTmVkOgHrYYeFSZe24RHBwKoGUA9SYJCkEQqZEAEE0TTGbz72WM1rgH/AI+Bg4H8DIQK333abTN9vPxm2xx4KBlALrGKQCwg5ngOmFLgypcBVUwoFTIkWDjIBoaAp0cJBSC0UNCVSLchMLey9t6YWAiCYJklsr4y0g/ZBSEY4YyOPpX7m+FkyaDdggAI2YCoM2OBjZQI/UwFh6lRhF8YYEKxywJQCV00pFDQl8tywEgy4EmoCIOR4DgAG1pRIMOCqqkGBKgULB5mpBc6VSFIMLOtEhUIrqhTickaCAdeiMxUABRYSCAZcy5QzMq2gXoOczoivOffc8H/f3/EI2Ag4GNho9Oj73/j61+WI5csVCFJQMGRIXTAoZULMqlRoMGQJvQ1S/Q0yTIja56BClUIAg2TAEicvQjWgYpBXpUDFgGsjIICCQBWBlQ1Y2TCJK9IQrHRgnwT1LiRVD+iyyE6LhAKsBAKuVA1YFREDiKoHpitjCgyS8kUqGVYxyGqVnAkGc+Zo8yOkEgAHNamECAiylINWpBJSyoHp8xADgaoHZs5EqVSC9RtEQ5YCGCStp3NTCREQNEolBNUgnqmwcqUUVg5WrZIHPv/5Hn3F88tuFAEHg0YR6uLP//KXv5SLX/lK3fyH7rabDN19dz2G7b676LHHHin1gIoBV00pwHdQwHNA1QArFQOuRWcqQC2woKAphYrljFY9UL9BQeWgJrVgzIk6Z8GoB9oDAeoBUgwY58wjAgXOYQiAgFLIpByyHigACiwoKBgYUFDVAOpBI89BBAlaUllQObCNkFQxMAqCKgemGVKu5yACBfZsqKIcWPVAwaDiNEbCAda2mMZoJjKWUQ4sKOg8haRa4bwTTpA//vGPXfzq5pfWTAQcDJqJXod+L14Q/uav/1r2mTBBhhQAgiIphdzyxRKNj2zDI1Qs2EoFCwRMLdBrwBXNjmzDo5qZChWmMbJKwQIB0wpUDLhSOcDKxkg1QGCmNlI9IBBwtcqBggGrHqgcRH0TqB5QMeBKIAjphKhKgb4DKgZcWaXAVasVTN+FGuWgQfmiqgZ5ykGJlsl5XgOaL1mdwZWKAVf1HNh0AlIJS5ao8bCU5yCuUki6I7JKgSsVA67Wc8CR182UL6aqFYzXADBggYBpBVut8I933NGhr15+2gMRAQeDgYhyG/2Ohx9+WBYtWCB77LqrQgHAgEemYrD77im/QSHPQWRGRFfEsp0ROU8BawoQ6lQpZAGCBQVrSCxrSgzphTpVClmAoJAQKwaJckAw4Eow4EpACKoBAME0VIobKxUBhAAJ06aFvgalAKFVnRHtuObkfaYUuFIx4EozYqhUMOWMhAPb16EIINhqBQsHhUyJppyRcyjKVCkQFJhisPMUCvc3yClnJBxkAcJpGzbI/77wQhu9KvmptFsEHAza7Y700/k8+cQTcvLWrdlAANWggHKAFMLwpHQR75dJJaD5UUgn1PEbwJCYqxxkpRLMXAVVDKqOZ068BqhUKNr4CCCA7ogpIKiQStg/Gc4UgKBgKiH2HFAp4KqKQcFUAsdDQzWgUsCVpsiGysHs2VohEUyI8BhUSCVkdkUsaEKMUwnWjKgVCnZMNX0HkQkxqzNiTeliRpVCbEKsmakAr0GF8cwtm6lwxBHaPvnum2/up1cZ/7HdEgEHg265kznX8fTTT8slF1+sG/ruu+wiOKAW2IOKAdca5SDxHDClwJVeA670GmANqYVkpgJVgzLKAQDBgkJV5cCqBhjdXFU5sKoB3mdKgSsBgatNLQTlIGmMFPwGJVILVBDUmNikchCMiVWUgwzVwJZbsmKBgMCVVQpcbTkjSzKxUjHgSsWAq1UOgnqwYIFOiyytHGSAQmnlIOlzALWgFdMYSysHRjUIxsSc/ganulqQ80rpH7YRcDCw0eii95999lnZdtllMmLYMIUBhYJdd5XdDRQQBLiqalBAObCqgSoHVA8KmBCtckDzIdei5Ys11QpGNUA6oXDjo2imgvY1qGBCtKoBoEBNiEl3xOA3KGJCnDRJrHqgIFDAhNhQOShYvgjVoEY5MApCGeWAMIC1sgkR0xiThk6AgjLli1Y5aOU0RjUiHnSQTmQs3DK5jaYxftzVgi56le+/S3Ew6L/YDspPfu655+S1V1whI4cPl9123rnv2GUX2S1RC7IAQf0GxnNQBhCs56CZzohjTbVC0SqFGBD2yihnVEgoYkocN05qKhVsKWPGFMZG5YxVqxS0lNGUM2qFQhVAiFs0FwUEzFTIqlSwpYxFxzW3oEohVg5KAUKDzoh5DZBsfwNVEKJyxkqAEM1UKNrfAL0NbH+DrHJG2wQprwHSqccc496CQXlV7rxf6mDQefcs84x/9atfyVVveIOMHjFCds0DggqpBKQV0Nsg1d+gaOMjM1NBUwnDh5c2IWoqYdQoqalSKGFCVO/B2LGiVQpNpBJSnRFzhiwxjaDKgVENQiohw4hI8yFXeg24MoXANcxmaKJKQU2IqFJIWibTgIiV1Qlc6TXgSq8BV45oZgqBq1UNVDlI+hqkUgnxoKWqqYRk0JKdqUDzIVdWJ3C1VQpqQkyqFGIosKWLWr6YKAb0HehMhSSN0HQqAd0RbVfEEkOWUlUK6JAY9TlwtSDzpdM/mBEBB4OMoHTSh37961/Lm9/0JhkzapTsstNOeuy6006ix847vwgJgIUs5aCO56CwcpABCoVnKtQpZyysHKC0MVELWMpoOyQWTi1kzFSwjZCKmhKzPAc2vVC3v0Edz0Fh5aBAOWORzoiEBQIC1wAIUA2KKAcZ5YyFTYl1QAHKgaYY+nMaY4lyxtzUQoFyxsKmxBKgEJSD5cvl9I0b5be//W0nvbT5uQ5iBBwMBjH4zfzqX//qV/LWt7xFxo0dG4AggEECBFAOgnqw884veg1KKgexGZHmQ640H3K1JsSUETEqYwxVCtF45pTnIDEgBuWgg6cx0ozIhkdcaUSkYsCVigFXKgZcVTlIWiyzdJGzGVi6iJVVCly1WiFpemTLF+MOiQQBrgQCrqoY5IABVQOsDZWDOi2TmUawXoNGJsR4pkLKb2AaHuUqBznVCoWUg5xqBfY2KDRTAYOWMoYtMYXAla2SuapiYIyIAQxWrJB7P/WpZl5u/Ht7LAIOBh12w3/+7LPyuiuvlFEjRsjOO+6YOggGXBUMoB5EgJDyG9RRDBqZEgEGNsVAMOCqgGCMifVaKFtIIBhwVeXAAgJLGqMUg1ULrGKQ6m+QU85oKxWs18AqBmHoEksak7HNoVqhyNClguWMhAOsBAOuRZUDCwe5gFCgnJFgwJVgwDXPlAgoqOmMmMx8CKmFguWMdQGBxsRGysGiRWIhQcHAgEKZckYLCc10RmTzI6za14Ar4SADEGK/AcGAa9wZ8cKTTpI//elPHfZK56c7mBFwMBjM6Jf43c8884xcdtllMnzoUNlpxx31qAcGhVMJpkqBJYyNgKDGcxD1NwAYFE4lRP0NMlsmR2WL8BukPAdRfwMCAoEgVCpUMCFaMCiVSjD9Deg7CIpBvc6I++4rAQpQpZAFBi2YqVAolYAqhTqeAwAB4CD2GrS0M+K8eYXLF3M7I0ZA0MhzkDdkSfsbNBjPrNMYo7LFmv4GkQmRcMCGR1izFIMiJkTAgfUa4P0vP/RQiVca/1KPgIiDQZv/FTz55JNy4QUXyG677io7br9937HDDrKTOeoBAtSDPM8BKhSsekAw4EpA4FrPc8C0AlYqBlwtJITUQtVxzT00jRFQYIcvUTHgqimFAtUKDZWDgtUKVAy4qmJQsJyxbmqBJY0culQmtVCxnJFwgJUpBa5FlQOrGgRTImYrFChnrJtagGpQQDlASsGqB1QMuEI5uOKCC9r8Fc5Prx0j4GDQjndFRL73ve/JGaefLjsQBrDusIMeAQpi5WCnnTS1EFIJNCNmpBIsEKC3ge1vkAUGCgUNhiyhv0EmGJTsb6BphTrdEYt2RoyVA5gQVT1oUjkI3REbpBLQ3wBGRCoGXEsrB4mKQCDAWmTIkvY3mDIljGcmIASvAcc0NxqyhPLFOsqBqgZFlAN0RqzjOSg6ZIlpBXoNQo+DIqmEOuWLAQzsPAX4DeLOiAccIFAPMsHAQkEj5WAApjH+4D/+o01f4fy02jkCDgZtdncee+wx2bJli2z/speFA3BQFxAS9aCeclAotdDAlAg4gHoQmxE5idGqBvUAIagGkRkRzY/KdkZUSIhTC8kAJoIB10KphRLljEgtKCTEgIDRzSXLGTOHLpWcqcCOiM2WM4auiEk5I6sTuFIx4EqvAdea1EIygMmqBvUAIXfoUsmZCiG1sGCB2DJGdke0qkGmcpAAQpin0MqhSwcfLFY1aGRKzEwtJGWNNCNypWLwrre8pc1e3fx0OiUCDgZtcKdeeOEF+ev3v1/2nzFDXmaB4GUvkx1wNAKDDOWAqkG9VEJm+aLxHAACoB4USSVYE6IqB2amQqs8B4XLFxt4DgqXL0adEWlKLGtCVOUg8hwULl+s4zkoakKMOyOqETGqVmiV56BQ+WI0U0GNiAVNiMus56BVnREXLZIYDAo1PjrwQJ3MmKcc5JYvLl0q8B2kwGDZMqHXQI2IBVIJNZ6Dww8XwAHB4NEvfrENXt38FDoxAg4Gg3jX4B949bZtMmL4cHnpS18qL4uOlGpQFBB22CFVqQAVgZCQ5zWoAQQoBwYQ4tRCPa9BDSBkeQ6qpBZMZ0RUK9hKhbqphTqNkAoDQoP+BnVTCyVmKuT2NyigHLRTaiGvSkFNiTNnajrBqgd55Yy5qQUoBxYQkvcHNbXQwJSokJCVWiihHHAKIxogxU2Q4mmMV2/bNoivbP6rOz0CDgYDfAd///vfy1133SVr166V7bffXl663XZ1gQBwQMWAK70GXOk5qJdKUOUg7m8A82HS+EhbJTdIJQTlIPEaxCmFMqkETScglVDVhNiq8sXEb5AatJSAAEsYqRRwpWLAlR0RubJ8Ef4Cm1Kgx/2kvSkAACAASURBVIArvQZcta9BzkyFUKlQp0oh9DdAb4OkvwHSCuxxQI8BV3oNuLa0v8HMmTXVCoCBhuWLpjuiHbKE98OgpQgKLBCo3yDxGnDYUkgpJN0RbSqhpnxx8eJgRtTOiBlDlmo8B5HfgOZDrkWVA6sYqGqAaYzmUCAoUL6Ijoc/ffrpAX5l81/XTRFwMBigu/nd735Xyw1Hjx4t273kJX3HdtvJdtttp3AAQIBqUA8UNK1gQMFWKQASCAi6Rj0OKikHMCXW6XNQWDnox86I/197XwI+R1G0Lypy+BcFkUsDGI6YhEswiFyi8qHoJyFoQEAgQkTEcKiAR0BQEflAwQOUEImIiiCogCiH4ZDj44ucigIihwgEgUBMSOQy9P95m6mhtrdrprt3Zn8zu7XPs0/N79iZ7ndmet6teqvKeg/K0hl70Rw4JAFkgQgC2ZwgBNY3qLMyohUmlqUzjnRlRGgOsmqIkudg6CojVuE5QJbCttuaWaee2qdVTQ8zqAgoMajxzC5cuNDMnDnTbL311mappZbK3yAD/G1JQarnIMtW4KQg2nOQ9VaITl+E58AnRsyIAHkQKG2RrC18lIUTXCHiG1Zc0QoQY0SItitjVhGRxIi8RTOJD8lyESLPUsh7KqCvQiZCRH+FKM+B0GyJyEBRlkLuOWBeA3gRqqiMOGKeAyFbQSIEeeEj7jkoSF/kIQWv5wDFjwKyFbgQkbITyHK9QS5E9GQrSFqD3HOAUELNlRH3njjR/Hvx4hpXNd31MCCgxKDis/zCCy+Y2bNnmz333NMst9xy5mUve1n+5uQA20WeA6434FoDG1pgXoOibIUggjAolRH7WN9gbbcTY5adEOs5oJACWUsM+lwZEcJEMbQQWN+gqBNjnsooEATuOfBqDQJFiZTC6C2dPCiVEQPqG1x12WUVr2i6u2FEQIlBRWf93nvvNUceeaRZc801cyLASQG2iRgUEYIOEeIrX2n1B13EIDZLIQsrkAgxz1QIqW9QEkrwpi86pZKt58DJUrCZCoLXwHZihOcA6YtNq4xYEErIiYGbvuhoDaz3wMlSADkgjwGsN33RKXhEugNe3yAolLDeeoYTApEYlNU3GJTKiJtt1lEqmbwH5DEgazUHvMaBW9+gJEuhw3OAxkr09mUpbLVVR5aCqznwpS9OP+SQilYz3c2wI6DEoIcrAK2OTzvtNLPVVluJZMAlB5YggCQkEIUuggDPAfMeiJoDR2/ACUJOEgTPAS+ERNkJZK0YMSGdkUIKZG1lxMCeCpwo2F4KLFshJp2Rwgqwo+hNBZDQT0HoqeCGFrj3YPQaaxj7pvoGoZoDhyTYVEZGFMRsBYcoWILAxIkx6YxEDmA3oTcVQIrwHPBCSBNQFTGwMiL3HGzB+inkqYyBnoOu0EJiZUQuSrSpjKxCYmhlRLeEcmpPBbfGga2K6KQzIkXxoQce6GE1048qAi8hoMTgJSyCtp5//nlz0UUXmQ9/+MNmmWWWiSIERBK458CGFHwiRCd1EaGFLmKQeQ7ycIKvMmJB+iIRBF+TJU4IKGOBCAFZylIg62YpdPVU8IgQXc9Bnq3AtAbWg8A9BwHdGElr0NVToSB9kbQHrtYAZIATgijNAfcewHMQmb5ovQdrr2241sBqDnh9A09lRO45QLaCL0uhrDKim62Awke2GyMKH2XVEKnoEScEwYWPkKUQkb6Iwke2+NHGG5uOLIXIwkfQHNhMBWQpeIofkceALHkMyJLnAD0VrObA9RygMmJJ+iK8Bztm6Yuw1nsAz0GECJEyFpCt8OPTTw9av/SfFIEQBJQYhKDE/gfaAXrA92qJIJAlQSKJEclyvUEZQbAkwSUIAZURreeApTNSGiMsEQOyRAzIEjEgywkCtm1lxNe8xpZLJkEiLHkMyHaJErN0xjy0kJEF3omxqOlSLkrMujFyQSK2udfAeg4yj4FLEDpSGSMqI/pCC0hp5OmMUaJEEIRMmEiCRFgKKZCVQgtuOiOlMZLlXgPrOcg8Bi5B6GjVPGaMLZccRRAyvQFIAaokwiYTBAgTeSrjxhsHN11yRYlIY+QVEokYkCViQNYSBE86I0gBf5eKEkESGFGgEENHAaSC0MJ+kyebZ599lq1SuqkI9IaAEoNI/J5++mmzzTbb9EQOiAiQDdUceD0GgaEEdGQkMSJ5CsgGFz5yeioQESAbnL7o6A1Cmyy5mgOEElZlPRUsEQgQIb7RrYzoEoLAUALCCB2hBIQQEE5ICCWgOmIuQmRhhFxvwDIVclLghBLGoRvj6NF5m+bQJktdlRFdQhATShg71nR4DBJDCd5wAnkMhCwFhBHcUAIXI74zUYT47gkTDN45IQAZ8BACX30D3lMBXgKQhFxrIBCCrm6M6KnAKiO6oYRb5syJXMX03xWBYgSUGBTj4/3r4sWLzWabbdYTOeDeBiIIZKvwHFi9ATwHSy/dWd8gMrSAMIP1HqR6DrJ0RvIawHKvQZDnICuC1IvnIA8trLyySfUcIIWRew8opECW6hqQJYJA1hZAytIZyWsQE1ogcaLPaxDrOcj7KqyzTl4AKcVzwL0H3GsQHFpg3oNkz0FGFPICSDGhBSGdkYogwZLHgCwRBLKcJNjQAlIZN9+8w2sQHFrIPAfkNSgLLXzruOO8a5T+UhHoBQElBonoQXi40UYb9UQOLBFIECHyfgrwIgQXPnJ6KpDHgGyM54DCCLDkMSAb6jlACAF9FTpCCQkiRO41yMslJ3gOKIRANrhkss9zwFIY0WzJvrneIGu0xCsjuj0VLBFg3oNQESL3GlitQUw3Rjd9kfVUsP0U4D0grcGYMcY2XHI1B8hWYJ4DeBBSRYjcc2A1BgkixG3e+lbDaxz05DlIFSG61REr8BzsvfPOZvGiRYkrmH5MEZARUGIgY1P6lyeeeMKMHTu2J3IAz4HNUEggCCAFXHOQShBsVcSUngpOZcTXgiQwohBKEKwHgRMEkINEgsA1BzFZCggvcM2BzVSIzFKwoQWWzoiwArwHuccglCCgMyMLLdhUxhSC4IgSY7IU3HRGm6lQQZaCJQnjxpmY+gZUDInXOQiujOiUT04KLQSkM3KvAbwF9u2KEkvSGUNLJ5P24E+33FK6Ruk/KAIpCCgxSEGNfeaxxx4z6623Xk/kgEIIZHkoAdtWhBiZpcBFiG65ZNIakCWPAVnKUiDrbbJUUN8g9xywngrUmjkplMDaM/dcGdHTopkTgjIRog0ljFCWQh5KyLIUbG+FiiojUhgBNkaEmIcSeshScNs0ExEgywmBTV9kVRF5loLtrcCEiLzoEScE5D0g8SFZCA97yVLg2QrQGyB8QDY4lOBmKiBjwenEiJoGp5xwAluFdFMRqBYBJQYV4Dl37lzz5je/uSdy0IvngLIWSJwY5Tko0BwEhxY8zZeCPQcFmgN4DRBmoGwF23DJ03QpJJ2xSd0YC0MLkemMpDfoSmcsyVYYum6MJdkKNrzgK5286aaG6w2CNAeUxih5DgLSGX1ZClaUuOWWZsouuxiIoPWlCNSFgBKDipBFC+VRo0b1RA7IY0DWeg5QOtmpc0BEgCwRArLwFvB3LkR00hjJY0CWPAZkyWNA1noOtBujFSByEaJb44DEh2QplECWujCSJSEiT10M6qnA0hc7iIFT4yA0fRH9FKJ7KgiaAy5EpCwFsggj8Ldt09ySbowkQIQl8SFZKX3RzVZITV8EMYC34O477qho1dLdKAJ+BJQY+HFJ+i3KIvdKDqzngDVcAkmQ0hmJGJAlYkDWkoPAdEYiB7BEDMiGeg64IDFWlMgzFUiMSJbrDfKmSx7PQVB9gwBRYmloITCdkYgBWUsMAjUHnCRQGiNZWxlxrbXyEsqSKBF1DcYykuAlCBAmlnVjZIJEb32DwHRGIgZkLTkITGeksAJsV2gBgsQEUaINKSRWRiwkCIHpjCAIbjqjrY74jnfYlEaf5uCcM89MWpv0Q4pADAJKDGLQCvjfhx9+uDLNgUQIbHtmV3Pwyld2VEYMLZXM6xsst+yyttYBJwTYzj0GlLq4/PKmozKiU9+ACAJpDWClLoyojpiTAmQpFBQ+EkMJbk8FVEZk9Q1s6eQAQtBV3yATJFKWAll4C1yPQYfXwMlS6CAGvMZBSJbCqFF5fYOcGGSkQCIEIAOcEJQVPspTFx2PQUplRG+WQqY/IEJAVvIaUNoiyiS7pZK9xCCyvgFpD0hrQDbXGvDKiBAe0vttb7PbnBSIngMKI8A6WgNb/MjJUuD1DWxVRE/Bo8MOOMCgSZu+FIG6EVBiUAPC8+bN6zmVMfccBGYrkNcAljwGZEM1B9xrEOs5oKqIsEQMyHKCkJMEoV0zJwrkMSBrtQYhmgOnfDIRA7Kh2Qq9eA6otoG1id0Y4TXg6YxEDMjGpDMSOYDt8hwEpjN6RYkJ6YxEDMim9lTo8hyAIAR6DogceEWJgYWQQAp4TwUbUmAhhpieCjy84OupsOv73mfmP/FEDauV7lIR6EZAiUE3JpX8ZsGCBWaLLbZI1hykNFlCfQNODEAIQA5Ib1DUZKnDc1BjN8YgzwG8CCx9sYMYIIRAb5atQAJE3mQJXgOevpgTg5VXNqiSaIsewbqZCm5lRI/nIKTJkpu+6HoOIEJEeMHVGoAMcEJAYQUiBGQpSwHWK0KE56BEhGjrHJSFEtZdV7sxkteA7NveVl74KBMh5kWPXM9BSfpiXiFxyy3NH2++uZJ1SXeiCIQgoMQgBKXE/1m0aJF5z3vek0wO4DXIPQcFWoPYngoiQYjsqUAVEVPSGUWCUJCl4CMIVnPgEoSEngp5ZcQ3vKGnyoiojthr0yUSI1qCEJmlYEmCr+lSBEHoaLrUQ2VEG1ZgRZC4ILGsMiIXJOahhcieCltRiKHipkt5aCEjCTGhBU4SbEiB9VXgXgMeWph16qmJK5B+TBFIQ0CJQRpuwZ967rnnzMSJE5PIAWUnkJWyFKA5KAwl+LIUll7aoL4Br3GA8AH3HJDWgKzVGgRqDiiMAOsNJbg1DtBsaYUV7Js0B0QEyFLaIlnUNLDeA5cYlIUSMo+B22TJ9RwglMALH5HGgKzVGgS0Z+b9FOA1oOwEsoXpiyh2lL3JU0CWewxyr0FATwVvKCHzGuSkAB0ZfZoDJkSk5kpkbUVEIUuhoxujWxXRl6WQlUrmTZZczQFCCV2VEVmNAxAD+3aJgdNTwVsZMUtdhO7A1jbIujDyJksII3SFEnhPBXgMEnsqkLfg0KlTzQtLlgSvN/qPikAVCCgxqALFkn0sWbLEVNGVkQhCnqmANMallnqxABIVQnr5yztIAg8t5JqDjCjAc4AwA6UzLpt5DMiWag5q6MbYU0+FjCj00lOBhxhSeyp0CBNHqBtjHloY6W6MGVHg3oMYzwEEiuQ9SPUcdLRr3mgjk9RTwUMU4DngRCHIc5ARhbw6YkFPhd123NHMf/LJktVF/6wIVI+AEoPqMfXuEWrifffdtxrPAYUVnPoGbrYCEQGyMemLhZ4DeA0CPQevefWrczGi13MQIEJ09Qah6Yu+boykM4BtczdG8hrA2vTFhJLJ8BxwMWJyyeSGdWO0AsRAEWJd3RiptgFsjAiR0hd33HJLc+ftt3vXEv2lIlA3AkoM6kbY2f/xxx9v8I2f9AMxNrWngus1CM1SADnoIgiszkFofQOQA04QbHiBhRiCeyo46YyWIARmKXSIEldayayGd5bSGJql4KYzop8CL6Gc2nTJhhdYiCE0tGCbLrF0xlSCQBkLFGKIIgishDL6KfA6B8FNlzzpjMlNl1idAxAEXkI5OLSA2gaJ9Q2KKiMGE4S3v92ce9ZZzsqhPyoC/UNAiUH/sM6PdOGFF5rlllsumhzwUIINJ2QeA95PAUJErjdwSQHPUsizFRytQUooAfqDFBGiTV9keoPXebQGUZoDrjdAfYMVV7SZCbz4ERECsqQ1IOtqDSikUJq+mNU3yOscoKdCD6EEN1uBtAZkudfAeg5Y0SMuQuyoihgpQrSaA1drgCwFRggojZG0BmSpCyNZ6AyozgEPJ1DaIlle38CGElhVRK454EWPiuobdIQSXL1BSalk1Dig+gZkqZ+C7a1AWQoh7ZlZloIVISJLIatzwIWIXzrssHyt0A1FYCQQUGIwEqgbY26//XazxhprRJMDm6VAHRmzComhhZBACjhRSPUc2BoHqZ4DVuegl26MJEiETfUcgBjwdMZUz4H1GqyyislFiYGVEd10RnRjtG9KY4zpxpjqOSggCsGeA086o3ZjlNMZizwH++22m3nmmWdGaFXSwyoCLyKgxGAEr4RHH33UTJgwIZocSJ4DSlvstRsjeQzIxogQq/IcNKYbY1bngLwGsNGegyyFsaPoEWvP7NY3yLMVssqI8BzYFEbUN4hIX6SsBerCSBa1DWLqG+Qlk+E5yLIVRrobIxcipnoOIEJER0YSI/KiR97CR0yAaLMVquzGuPnm5sPvfa95/NFHR3BF0kMrAi8ioMRghK+EZ5991kyePDmaHPD6BkQUeDojJwnRoYUsUwHEwE1n5CSB0hjJFqUzRldGZOEFylSgkAJZ7jWwnoPXvS7vxJjXN8h6KvBMBR5W4B4DMbSQFUMCKUCYgUhCEEEQ0hk5SSBiQJaIAVlJc0AhBbKloQWhEBJpDMiS1oAs78TI0xlBDkas6ZInnTGaIAjpjKUEwQkvSOmMMVkK7996a/NXbY40wquxHp4QUGJASIywPfbYY20XxVAxIpEBqzUIzFKwlRFZT4XkUMKyy3Y0WkoVIUJfwOscRIkQncqIPFMhtTJiL6GEN626aloogZdLfuMbjRUixoYS1lzTQIjIiQFvtBTcU8GTpQBykHsM4C0IqG9gNQe+TIUxYwz0BnnqIjQHmfDQag7GjjWbOTUOoDsgzYFNW/QQAre+AWob8PoGVoCYkKWA+gbcc2BbMzNSIBECt74BEYSuTAXWnvmaK68c4RVID68IvISAEoOXsBjxrfPPP78az4FAFII8BwEllLnXwOoNEokCL4LECQKlNRYRBfIawHZ5DlimgvUcCCWUgzwHlNZYUEK51HMQqDkgjwFZ6zEIzFYgrwEsJwhWlEgpjSXNl+Ax4M2XrMeA9VYI1RyQGJEsiRHJhmYrkBiRrCUIgUSBew+6eiqAJAQQBZACN50xNVuByAEsJwjYPnPGjBFfe3QAigBHQIkBR6MB27feeqtZa621oggCeQ9CRYiWIDDPgc1UCCAEbvqirxtjSn0DIgghhIA3WUJ9Ay8xyEIKwZ6DrFIihRJgrfcgpKdCgeYA6YsQJOZZCtAaSCWTuecg26ZQAqwNJ2g3xk7vQZatkOsN+tiN0XoPMs1BoeegJFvhuKOOasCqo0NQBDoRUGLQiUcjfnrqqafMzjvvHEUOXM2BJQm+AkgR6Yy99FQIIgjLL2+KujHCY8DTGUlrQMJE7jUoIgi514CnMqKfQmQ6o9h0KdMdlHoOfO2ae0hnzHsqZOJE7jXweg5YOmNeGTETIpIgMUaUKLZrTkhnpDRGWJ7KiG3yGJCl0AJZpDDyNEYiCtxrgO0uz4FbPtkRI8aKEnOCkJVPLuup8On99zfPP/98I9YcHYQiwBFQYsDRaNj2zJkzg+odkMeALCcFeY0DlEx+xSvsm0IKVBGRLNU1IGt7KXh6KvCiR95QAiuVbLMUUOPAU+eAPAVkyWNAFjUNbDghEyLmxCC2p4IQSqiyMiInBZS2SJZ3Yuwol4w6B6uvbkiIiBAC76vAPQbWawCPQUA3xq5QAiMEPfVUQD+FQM0BhRFgKYRA1oYSMr1BkeYARIBrDogIkLWEIFBzwEkB1TUgG1r4CDUN+NvWNUjQHCB8sNekSWbxokUNW3F0OIrAiwgoMWj4lXDXXXeZMWPGRHkPOggC9Aau5yDrq0AEgSwRhODQQgu7MXqbLkV2Y+zwHKy8cp6lEJWtQGEFsowgcKJAegNYThREghCRzgivAS+ExL0GMZ6DPFMhS2fkqYwxhZByUSIEilyU6KmMCNJABAGW+in06jkAWUAKI09jjPUc2FRGarq06abG9RxM2n5788+5cxu+8ujwhhkBJQYtOPtPP/20mTJlSik5IEJAlqcvup4DIgOwnBBYUtDEbowBPRW6RIhu+mKB54ALEbnWwOoNtBujodRFm6XAvAY5KfBkK8BbsFHDujF2eQ4CRIgQIHaJEJn3ICZb4f3bbGPu0rTEFqy6wz1EJQYtOv/nnnuuWX755csJAiojZlURYUNFiV0EAYLEQFEiz1SgugZkQ9MZEVLgPRVsSCGxpwInCb1URkztqdARWmBVEa0YMTBLwVZGZKJE6zFgngOpvsG6KITE2jV7UxkTmy6NT8hSADnoIAhOeCE0SwFhhY7QArwGzHMQk87YQRACsxR8BCEmnRGk4A5tjNSiFXd4h6rEoGXn/p577jHjx48vJAdECkAILDFwQwmO1oC8B13EgHkOqDUzL3hksxRe9SrDSUGR5sDqDDxaAyp+RFoDsqQ1IGs1B+ilQG9Ha0BiRE4KsA3xIX+/wSdCzDITQj0HNpzgFDyyTZYKshRyzQETIVrNgaM1CAkl5JoDnqngEoKMHJRqDtZe27j9FHjaolj4CJqD7C3WN0jtqRAZSrDhBNZTwQoQkaUwfryJESGKoYRNNrE1DXjxI643cHsqWCFi1pYZPRWUFLRsoR3y4SoxaOEFgGqJhx12WGlBJO3G2JnOmOo5sNURU7sxMqKQ3I0R+gPmObB6g0TPAc9W6KUbY7LngBGFJnZjDKlv4HoOiCwQUXBDCztuvbV6Clq4zg7zkJUYtPjsX3/99YU1D8hzQJZEiLneAJ6DiPTFjmyFTHhI/RRgQz0HeabC8svbbAXyGJAljwFZ8hiQ5Z4D240x68hIHgOyoZ4DeBB6Kpnseg4i0xfzOgfajdFWRmxUN8ZMjEgCRFgiAmSJEJClLoyw71NS0OIVdniHrsSg5eceNQ+mTp0aFFrICUKWqQBSkJOEVIKQpTOmEoScJCy3nK1pQOQAlogBWSIGZKV0RiIGZEsJgiBK5GEF6zV4/esNFybaNs1CZUTKUIDlegNsU0iBrJTOSCEFsjxDwc1SyEMLQjojr3FQGlpI7alQkM7IMxV4KmNMOiNqGvBsBaprQJZnKeSZCp50xujQQmJPhR232Ub7H7R8fR3W4SsxGJAzf8kll5hVVlmlgyBYIsCEiKEixCp7KnDNQagIEQJELkIEMSAyAFtUKrmrMiLrqZAcSkB7ZpcUCISAN1mymoNVVnmJGKy6qt3uIAQhlRGd+gY9hRJYTwWEEmzJZEpbFAgB9AZdmoPRo8VMBbHwkSNC3Hj99Q0nBqkiRJcYxIgQiwofhdY38HkOPrDttuaeu+8ekNVFpzFsCCgxGKAzPm/ePLPLLrt0kAPelIk8BmRtaIF5D6gjI4kRyRaJEhFeoAqJ3GsQHFpYdlljuzJSEaQUzwGRBacQEnkMyMZ4DnoKLWg3xlyUyNMZW9mNUUhnLAot/Pd225n77713gFYWncqwIaDEYADP+Nlnn21WXHHFDoJghYiUpUApjE4owa2MaD0HrM5BcjfGZZbRbozcc+CEE2woIcVz0MBujKGVEXn6IoUWqDIiLK+OmBc+ckIJNn2xoGRysOdggw0q68Y4aYcdzIMPPDCAq4pOaZgQUGIwoGf7kUce6fIegBzwngrBoYVXvMK4hZBC6xsUeQ6CQwuengqvZeGF4NDCCit0NF1CaIGnMzah6RLXG9iGS1LTpdVXty2aue6AKiMG1zcoSWcU2zWjv8Kb32wojZGsVASpMLTAshRcggByYElCWbvm1MqIkemMYmhh441tAaQP77ijefjBBwd0RdFpDRMCSgwG/GzPnj3brLfeeh2EwBdK6EmEyPop8DoHMVkKVoSYZSn8v4wIkBCRxIdkud7Aag6yEALPVkCtA4QQuOagNJSA+gYQInrqHHAhIhcgipURs0wFrjkoFSFm9Q3cLAXeTwFCRE4GRBFiVt9gnazBEhouQYDICx+VihBR3wC6A7fOgUMKOCGwlRFZfQMeStgQJZOzBksxpZLzLAWUSs7KJUeLEN0aB1l9g7fDW5C9edEjbFMvBbK2VLKvZPImm5iD9tvPLFywYMBXE53esCCgxGAIzjQ6uH3jG98wK6ywQmd4wa2O6AstRGQrkNbANl+KTGcUuzFGaA5Ez0FWEIm0BmSLiIKXIPTSUyFLYQzNVhA9BxHdGOE5yLMVGEGgrow8U4HXNyDCgD4K9PYShKwzI3kMyEpEQfQcRHZj7AgtjHQ3xo02Msd96UtmyZIlQ7CS6BSHBQElBsNypo0xjz/+uO25AO8AeQ1gpZACwgfQHcSKELuIwTLLdNQ4oFLJZDkp4OmL8Bxw7wF5DMh6PQc191RAR0byHng9B4HZCtx7QFkKZDkp0G6Mmd4AuoOSkAJlJ5C16YtVlExm7ZltZcQsfRF1C8776U+HaAXRqQ4LAkoMhuVMs3nOmTPHbLrppi+Sg4R0xq4shYieCrxlsyUGTJgYrDl49as7ahxwvUFMOmOXxwDlk1kJ5VDNQRdBADkIJAhIaSSSYIkBEybGiBJ5eGE0qiImVEYkTwHZniojsnRGK0hkjZdEz4GTzmjFiKyvQkw6I5EDWNtPIYEgIJzA0xltVcQsxLD9O95hbrzhBnZX6aYiMDgIKDEYnHMZNZMXXnjBzJo1y6y22mov9lPI0ha51qArS8EjQgRJyCsiUuriq15luNbApjE6XgNe3yD3HCy3nE1dFHsqoL5BaOEj6qeQVUXkWoPkUMJKK9kKieQxINtFDLJujOingCJI0BlwrYENJzBC0EEMVl01L4BEWoPca+D2VEB9gwjNAYUQuposlYgQbWtmQWsQ257Zag4crQEVPyLxIVmepcBFiPAc+LQGKICENycFlhiMG9fZojnTG9h+CuPH234KXGtQpjnYfaedHRocXQAAIABJREFUzEP/+EfU/ab/rAi0CQElBm06WzWMdcGCBeYLX/iCSUlntJ6DxHRGLkxcnnkNQBJCPQcIKfBCSDa0kJKtwIog2SyFXjwHiT0ViBzAoqcChRVgYzwHvKeCzVJI8Bw0oRsjkQNY9FSwb8pSSExnTPUccK/B4dOmmcWLFtVwJ+ouFYHmIKDEoDnnYkRH8vDDD5v99tvP6gls4aOXv9z2UbBFjxytQYjmYKS7MVoholPwCF6DWM8BujL6shS41qDMc2C9Bj7PwSqrmKCSyawbo01hdD0HaLKU6jnIshW4EJFCCWRJgEi2K0shUoSYZyr06DmA18B6D9z6BpGeg82Z10DqxghtwemnnGLgadOXIjDoCCgxGPQzHDm/O+64w0yaNOlFQSKyFJZa6iWCkJEFIgZkuzQHrF1zXhkxMkvBeg6y0EIuSKyg6VLesjlLZ6SwAmyX5sDXrvl1r+touIQKiUQMyEqhBdtbIauK2BVaCOmpwNIZc4IQkaWQ1zlgrZrddMZogpCFGBBSoDdlJ5CVshRAEHKSsM46hkIKZLnXwHoOMo8BhRhIjEiWshUopEC2NLSQ9VMAKchJAmvX/K4JE8zvr7gi8k7Sf1cE2ouAEoP2nrtaR37dddeZzTffvKPJkqs5ACFAdUQiBlZrEKI5WGYZw0WIyy27bGWVEXmmgpi+6HoO3FCCSwiEJkvwGnDPAQgB76lQ1GSpgxjAc8A1B0xn0JhQgpu6KGkOeI2D0aPNuApEiOipQGTAag1iQgljx+aag5QshSm77mrmPvxwrfea7lwRaBoCSgyadkYaNp7zzjvPjFl//dxzwMWJ5DEgSwSBbBFR4H0VuN7AK0pk/RRy70FEfQMiC7wbY0+eg4wowFvAWzaTx4Cs13MgZCuE1jfIiYLrPUj1HHi6MXKvQVl9g1yY6CEK5DEg6/UcCNkK5DWALfUcCEQBHoPSQkhCtgLEiN864QTzn//8p2F3pA5HEagfASUG9WM8EEeYMWOGeeMaa7wYVnA1B67nIDF9EZ4DTgxCRYjajXF101EdscpujKNG2Q6M0Bv0kr4IcsCJQVJPhQq7MVohYpat4PZU+K8ttzQ3XHfdQNy3OglFIAUBJQYpqA3xZ8444wxbYjkXJRZURkQ/BXgPqkhn5EWQUtMZg0MLTk+FPFMhCzEU1jco0BygtgG8CB1aA58oEVUSeWgh2+7KVCgTJZakM/bSU8GShJB2zWuvLfZUADkAWXC1Bm7pZPIeFHkOgpoulYgSQRA+d8gh5vHHHhviO1ynrggYo8RAr4JoBKDMvvjii827ttsur4qIcAKFEMgSISBrKyJmfRWiQglMhJiHErJ+CtGVEVlfBZulkNU5iBYhZmGE6FBCVtvAZiqgvoGHGPDURZu+6GoOWBghr3HgabbEix6JPRU8oQTeTyE4lJD1U0DGAhch8mZL3GPACUFODJClsM46tp9Cv3sqvH+77dRLEL0S6AcGFQElBoN6Zvs0r5tuvNHsuuuuZumll+4gCS5R0G6MK1lvAekOgisjFmQrBNc3KElnLPQcFKQzwmtgQwxlnoOAdMag0EJJT4WUbozIQjjp+OPN008/3ac7Rg+jCDQfASUGzT9HrRjhvffea6Z96lOWHJDHgCx5DMjyGge8QmKpCNH1HNTQjTHac+Cpc0DiQ7JEBshSKIGs9RpU7DlAXQN6B3kOhrAb45TddjN333VXK+4vHaQi0E8ElBj0E+0hONa8efPMMcccY1ZfbTV/aCFAc1BKEKg6YkkJZWq2RJayE8gWaQ6iCIKQzghi4KYzEjmAtcSALNU38BAEV2/AtQZ5lgIqJJZoDrwEIaEyIhU+Isv1BkVZCggrFIYWoDcI0Ryst15HpgJPZQxJZ3znhAnmF+ecMwR3o05REUhDQIlBGm76qRIEnnvuOXPuOeeYbbfZ5kUBYgAhQG0Dt74Bz1KI6qngNFoCOSBCABtUGfG1rzVFhY8KRYisC2OZ50DyGIAQuKSgSHNgix55tAYok8xLJRNBoIJHtjWzoDXo0BusuaYp0hzY1syetEWXEBSmL0JjQG+3MiKaLIWkL1JFRKenAgodfeXII82/5s8vuXr1z4rAcCOgxGC4z39fZn/bbbeZKfvsk3sQrN4ggCiAFHCiYIkB66sQk85IXgNLEHwkIaVdcy89FbIMBes5gNcg0HPAiYL1HLC+CsGagzXWMEQOYHvqxlhROuN4ls5ovQaBnoONmPfAeg6Ebox7TJpkbr/ttr5c73oQRaDtCCgxaPsZbNH4n3jiCXPiCSeYdUaPtimMVmuQZSlwrUFsN0aeqcCzFGx9g0HpxlggQqTQQlkoIVZzMNLdGOE5sCWTXc9BiQiRQgsolfyRiRPNVb/7XYvuEh2qIjDyCCgxGPlzMHQjWLJkibnwggvMe3fYobPGAdo1L7204amM2C7VHDCtAScJaNHM39xr4IYWbHiBpzKyts1cb1AUWkDDJW/TpRVXjGrXbFMZSWuw8sq20VJUZUSmNeDpjEQMyHKvgfUcvPGNpiO8AEFiFmLISUJBlkKuOWDlk3PNAUtj5OmMFFZwCyAVpTNSXQOyvvoGu+60k7ni8su16dHQrS464SoQUGJQBYq6j2QE7r//fnPccceZjTbc0Ng6B7zZki+UwPoqgAQEFz5imgOuNcj1BgGhhJWgOWB9FSwRQDiBCIEgQnR7KvB+Cr2GEt7EahzEhBI6NAcuIQAZCNUcZCmLedoiKiSWpS86IkTeT8ESgggRohtK2G3iRDP70kuTr0f9oCKgCGiBI70GGoTA7bffbo488kjbm6ErtBDhOeBeA1RJ5F4DbId6Dng/BWwneQ6q6sbYg+eAew0gUCSPAdkgz8Gb3mS41wDb0T0VUASphm6M8BgctP/+5qY5cxp0NetQFIH2IqAeg/aeu4Ee+R/mzDGf/cxnzFprrmkFiF0iRO45CExfdHsqWM8BEyIWpS+iSmJODJjXwC2XbEMJgZ4DeAu49yAmfZGLELnXICZ90c1WsGGEhPTF9ZjXwHoOmNcgDyWEZCtEdmOcMH68+fL06eYff//7QN8LOjlFoN8IKDHoN+J6vGgErrjiCvPxqVPN6quu2pWlwNMZY7IUQBK45+C1iQSBaw5WTsxSQDrjanhTL4XELAUqpZyLEVHbIKC+gfUc+DIVshBDYWXEUaNe8hw46YxVNV1ysxR232UXc97PfmYW/Otf0deSfkARUATKEVBiUI6R/kdDEIBocc6cOeaYo482b58wwVBdA7JWc8CEiMhQ6CWUYNs0kwiReww8TZas5yDTGuSaA7efAgoeFTRZyokB66dghYjoqYDGSs6biABZIgRkKUuBLDow9hJKWCerjmhDCpwQZNskPiRLWgOy6KNAbxIgwnIBoiRCfNcWW5hvHn+8+ft99zXkatRhKAKDi4ASg8E9twM/swcffNCcPmOGmTRxYnq75gLNQXBowUMUrPcgRJRYQBSiujGWpDMGew5WX72jxgHPVgj2HHiIAq+OWFgIiRGFTceONYceeKC55uqrB/5a1gkqAk1CQIlBk86GjiUZgX//+9/mt7/5jTlo2jSz/rrrmi7vQSZC5HUOeChBTF8UshVyvcEKKxh4C/ibPAZkbYVE13tQQAgKPQdZGiP3HpDHgCx5DMiSx4AsVUhECAFehCgRopCtwIWI5DEgSx4DsiRAdL0H8BZsNm6c+cy0aebS3/zGPPPMM8nXg35QEVAE0hFQYpCOnX6ywQj89a67zMyZM80+e+9tRq+9tiUKCCvYd2x9A6GEMsgBFyVycpCHFgLTGalsstUbsKqIIAm2KmJAZUQiBmSJGJANTWcszVIITGckYkDWEgMmTCTPwaYZGbjskkuUDDT4ntKhDQ8CSgyG51wP9UzvuOMOM+O008yUvfc2644e/WIK46tfba3kOYgKJTheg5wY8HBC5jWAzsC+nSZLyFDwEoNMc9BLT4WgUAJ6KpSEEmxfBa41QBrjqFH2zb0GbqYCyAH3GHxwhx3M17/6VXPV7NlDfV3q5BWBJiKgxKCJZ0XHVDsCd955p5l1xhlm3ylTzAbjxskEITBboTC0wLwGRemM3GsgEoSR9hwEpjNykgBSsP0225jpRxxhfvvrXxuUxtaXIqAINBcBJQbNPTc6sj4isGDBAnPlFVeYb554ovnoHnuY8W95i3ZjdFMYWYXEssqI/73DDuaY6dPNr84/3zz04IN9PJN6KEVAEegVASUGvSKonx9YBJ588knzu8svt42f9vjIR8y4MWMsWehIY0xMZ+SCxI7QQoQoUQwtZGmNpDUgS1oDsq4YMTWdcbMNNjD77b23OeXb3zbXX3utWbxo0cBeEzoxRWAYEFBiMAxnWedYGQILFy40aCN9wa9+Zb598snm0IMPNpN22slssuGGBj0ReMEjEiNSdgJZSwpQHbFEc0DZCWRtZURW40AkBqusYogMwBIRIEuEgCxlKVhi4GQp8J4KW2y6qdlz113N0dOnm7N++ENz3TXXmEfmzq0MW92RIqAINAMBJQbNOA86igFB4L777jNXX3WV1S8c+5WvmGkHHmh2mzzZvPud7zQbjhtn0xqJIJAl70HuORihbozrr7WWeddWW5m9dt/dfPGII8z3TznFXHTBBea2W24xi556akDOkE5DEVAEyhBQYlCGkP5dEagYgfnz55u7777b/O/111vPw8wZM8wJX/+6OWr6dPPZQw81n9x/f7PPnnuayZMmmffvsIPZbuutzeZvfavZYMwYM3rUKG/64rprrWXGr7++2WyjjcyWEyaYd229tXnf9tubiR/4gNl98mRzwNSp5ojPftYce8wx5jsnn2zOnDXLxv9nX365ufXmm83jjz1W8Sx1d4qAItBWBJQYtPXM6bgVAUVAEVAEFIEaEFBiUAOouktFQBFQBBQBRaCtCCgxaOuZ03ErAoqAIqAIKAI1IKDEoAZQdZeKgCKgCCgCikBbEVBi0NYzp+NWBBQBRUARUARqQECJQQ2g6i4VAUVAEVAEFIG2IqDEoK1nTsetCCgCioAioAjUgIASgxpA1V0qAoqAIqAIKAJtRUCJQVvPnI5bEVAEFAFFQBGoAQElBjWAqrtUBBQBRUARUATaioASg7aeOR23IqAIKAKKgCJQAwJKDGoAVXepCCgCioAioAi0FQElBm09czpuRUARUAQUAUWgBgSUGNQAqu5SEVAEFAFFQBFoKwJKDNp65nTcioAioAgoAopADQgoMagBVN2lIqAIKAKKgCLQVgSUGLT1zOm4FQFFQBFQBBSBGhBQYlADqLpLRUARUAQUAUWgrQgoMWjrmdNxKwKKgCKgCCgCNSCgxKAGUHWXioAioAgoAopAWxFQYtDWM6fjVgQUAUVAEVAEakBAiUENoOouFQFFQBFQBBSBtiKgxKCtZ07HrQgoAoqAIqAI1ICAEoMaQNVdKgKKgCKgCCgCbUVAiUFbz5yOWxFQBBQBRUARqAEBJQY1gKq7VAQUAUVAEVAE2oqAEoO2njkdtyKgCCgCioAiUAMCSgxqAFV3qQgoAoqAIqAItBUBJQZtPXM6bkVAEVAEFAFFoAYElBjUAKruUhFQBBQBRUARaCsCSgzaeuZ03IqAIqAIKAKKQA0IKDGoAVTdpSKgCCgCioAi0FYElBi09czpuBUBRUARUAQUgRoQUGJQA6i6S0VAEVAEFAFFoK0IKDFo65nTcSsCioAioAgoAjUgoMSgBlB1l4qAIqAIKAKKQFsRUGLQ1jOn41YEFAFFQBFQBGpAQIlBDaDqLhUBRUARUAQUgbYioMSgrWdOx60IKAKKgCKgCNSAgBKDGkDVXSoCioAioAgoAm1FQIlBW8+cjlsRUAQUAUVAEagBASUGNYCqu1QEFAFFQBFQBNqKgBKDtp45HbcioAgoAoqAIlADAkoMagBVd6kIKAKKgCKgCLQVASUGbT1zOm5FQBFQBBQBRaAGBJQY1ACq7lIRUAQUAUVAEWgrAkoM2nrmdNyKQI8IPPPcc+bBx+aZR56Yb1544YUe96YfVwQUgUFBQInBoJxJnYciEIgACMFXz/q5WeEDe5iXbbezfW+47yHm93/8c+Ae9N9SEDj3qutyvAl32PU++knzwKOPpexSP6MI1IKAEoNaYNWdKgLNReDk8y4yr3j3Ll0PqTdN3s/c9Nd7mjvwlo9MiUHLT+AQDV+JQZ9O9rV/usO8fqe9uhZj/s3htR/Yw1xxy59qG9GdDzxkRu/xicIxNPXby78WLTbv+vRRhWPnWPLt5d+3m533Tl88znzr/F+bvz00tzaMm77jx+YvMG//5BEijl/+0blNn0Ly+KQHM79WfNt0/Wz/2aPNV350rrnl7nvNf5YsiR6HdPym3nPRE9QPDAwCSgz6dCpDiAEWpU988/u1xXtPPOdX4gOBFsSmLlK9EAOaG7dv+8Rh5tI/3FIb1n26rKIPA5c1zjHHgm/veexJ0ftsywekBzOff+j2qF2nmuPP/oVZsHhx8PSl4zf1nguemP7jwCGgxKBPpzSUGOAbPb7ZV/2at2Ch2fJTnxcfCLQgNnWRqpoYYL5wp3/46BPMo/P/VTXcjd1fGY7wqAzqS3ow07WfYhF+ufD6PwQRTOn4Tb3nBvU60HmVI6DEoByjSv4jlBjgYXXGb2dXcky+k19ec4NZ5r8mKzHIxHb8IfDOQ6abfzz6OIer8dvIJjj915eb9x7+ZbPv/3w3arw/vvxqA/c4xwDbcJWDQA7qS3owuzjE/gws4Y0ry+yQjq/EYFCvuPbOS4lBn85dKDHAovS+I75sFj39dGUje/b5581uX/5G14PAtwA2dZEq+6brm0vM7+A5gFq/qS88dC678VYz9cRTzWq7TOk4l7Huf+zr4htuMptM/bT1miA7AfsddM+J9GCOuU6k/wU5AOEqeknHb+o9VzQX/dtgI6DEoE/nN4YYVC1CvPGuv3U9TKQFrqmLVBEx+NCX/semeyF+zt/3zf2nueC6OebTp84yiAlLc8bv4U2BV6Wpr6L5xxKDps6x7nFJD+bXvH93A9HlWZdd1fWe9dvZ5qDvzDQbfOxgbyYHv6bKsjqk4zf1nqv7fOj+m4uAEoM+nRuJGKyzxwHebIUqRYifP/2srocivnViQeQLG7abukj1+mCEihxiMZ8LnTCAVwXelSa+ep1/E+fU7zFJD2ZkC+H+LHvdds/9ZrtDj+y6Z+j6gZ1y/HfEa0g6flPvuTI89O+Di4ASgz6dW4kYQB2//l4Hdi02KDiDOHKvr7nznjQb73do1/4/+rWTvYSkqYtUFQ9GuNCP/uHPurCghR04Aa8mvqqYfxPn1c8xSQ/mUGKAsSLcBE0HXTOuXeND+9p0Rt+8pOM39Z7zzUF/NxwIKDHo03mWiAGEbzsf+fWuhaYqEaJPdIiF8PDTzuw6Jha5pi5SVT0Y7/j7g2at3T7eqrnjEq1q/n263Bt5GOnBHEMMMLGHHp9n9RkuKaCfZ158uXf+0vGbes95J6G/HAoElBj06TRLxABFe076+YXeB1WvIkRJdIi0xRm/vsx7zKYuUlU9GJ9c+JTZ9uDprZo7LtGq5t+ny72Rh5EezLHEAJMrqgnyyZNP885fOn5T7znvJPSXQ4GAEoM+neYiYjDnzru9FQl7FSFKokMsavhWQ99wuG3qIlXVg7FoPyAMIA4xr8XPPGOuvu3P5nMzzrJ1IiBy5OWGX/meD5m1P7K/2eWo482PLrsqqiAOH0fRuEdSfAjX+pW3/MkcePIMK9Dj/RdwXa3+oY/Z3+93wilW3Am8RuolPZhTiMHlN97m1ehgzh/4/LHGN0/p+E2958rOE0Kd3/3lb2yaq3vdQ8uDmixIgf3aT84zd/3jodJ0zrLj6d/7h4ASgz5hXUQMnlj4lK14yB/QtH3Y989MHqFPdEgFlKDCpmNw61ukkDoJ7wX/P9ruhbz4whzYL1z9cPnzV1UPRmQqSGWh9zruW0GLF7QKIHN4ABSJGQkjbvHgRFndsnRU6fzwfYVs42Hkvqp4QOGaPfKMn5qVdvqo97qQxrbKzvuYG/7yV3dIfflZmncKMSgKScELiOvVfUnH991z/LPS2gGMfeeXf9bdlq4raczu53HtX3Xr7WaraZ/vIMDS+ea/hzBTX+1AQIlBn86TdHPTDYkeCXjI8hsJ26kiRLB5fNbdH2U7SAuEtEih6BL/Jsz3CwIS+8ICg7Hw/dC2LzugKmIgkZHQdEWkQ+KcSVjQHMosChMV1Q2Qzk/Zft2/+x4cqQ8oOsfowohsGvdYIT+nPITpuL1aad4pYyoqLU33tDte6fjSPUefl9YO4O07v/Q5n5WuK2nMfB8gs0jdTL32R9Kzxeeh2+UIKDEox6iS/5BubrohpW/luAlTKiH6HuR4+F10/R/sfKQFQlqkJKKBxQmahdiKefc/8qg3G0N6QFdBDDBGiD19D7APfvFrpd/iAZx0Hn37LPtd0TGl81O2T/fvvgdH6gMK8//5Vdd7s1nc40o/pzyEK7kBjbEPUd+4UsaERkrIQPDtD+7zhYv/3TXsVNyLrjnf+e06MPuFdF3ROsT+tWMT9w7qhfjmG/o7JQYdkDb6ByUGfTo90s3Nb0jfwxw3XawIUSIZ/AEuLRASMQBMEFX5FoGUhfWcK6/1fvNA5z90AHRfvRKDex5+xMY7feMfP+Vg89cHH3YP6f1ZOo/YL8IE+CZNb8TXfcej34H0oayx7yWdH/psqPU9OFIfUH++/wGrlyg69soT987nDxxcDFKuFR8+Kb+T5p0yJhBskFgfFtIDUDp+0T2HeRZdc77zW4SNdF3xdcj9PLx7R5z2I+9caf6kpaFrH+E6N8wm4eIeT38eeQSUGPTpHEg3N78hpW/RsQuXdCyIDuklLRBFi5QU7sDigP2FvrDQIJ5Piwq3UlgihRjgMxBggtC4ojg6JqrVXfPHv4QOvWuRHrvPNNvKWao5gYZY8AzQ8VzLyRofhHR+3M+X/ex7cKQ8oIpCPxgD5ig1/4IQ72dXXGu2OPAIA40Brs+ReEnzjr2/MHaffofOxXE/Od87Pen4RfccdiTdzzie7/x6D579Urqu+Drkfl4SMeP4wA7k1ldOHNcMRIcIP0CLosTARba5Pysx6NO5kW5ufkMWLb7SA9M3fN+iRaJD+n9pgShapCRPBBYIPg86hmTxAPEJAFGNEYuQ71VEDGhBjrH4to76EfAkxLzoPIIQoKseKiqWvbBoSkQo9KFUNP/YBTflAQXi85a9p3kJDgr++B4MLi64vpHBEYu5u5/Un6V5h54DOi4edhIWRWJc6fhF9xyOSdec7/ruBzEA0fEdG/crzmfIC2JVlCfXVzsQUGLQp/Mk3dzuA1X6Vh4qQpS0ACQ6pOmmEAN8Vgp3xCyu0j6Q0ieVJC56MPoWLel3cG8imwDKajyoYl/X//lO89nv/TA67bDoW1dIq+Oi+feDGEjXL74JQozYhpf0YI65dkGOoa6Xrq+isJ90/KYTA1xfvvnu/tVvJt1DbbhWhn2MSgz6dAVIC6tLDKRv5aEiRN9DFz0RkHfNX6nEQCIeWDiwz7KXVHSpbH5FD0bfolX0O8TBsYD3UlegbJ7u3zFvEB/fuEJSUovmP5LEIOah6mLS75+lB3PoHODpKAoLQXPwk9/9XpyWdPy2EoPY604ERv/QOASUGPTplIQSAwzH93DHA0UqnEJTkEiFL46dSgyKwh0uyaFxcSuFEco8IkUPRt/DNvR3q06aYr7zi4uDQgJ8HinbX5p1tpcYhCywRfMP+Twfb8oDSrp+pSwSfrymbEvzlogBrvVHnphvM3mAsSumc6+xstbd0vHbSgyKvCNNOec6jjQElBik4Rb9KWlh9T1MpW/lRTF4DEgKQ3DRIQ08lRgUHUdaYOmYsFLFxbJvzUUPRneBTvkZqVixKZd8XiHbEuYhD/ai+Yd8no8v5QFVVBgK8Xak7zX9Jc075XpxPxOS2SIdv+nEQCK08PJBzxSiL2n6taHj60RAiUEnHrX9FEMMMAifgBCLkSRClL7Ju6JDmqD0kCpbpPB5yTOB8flICB1TcqcXCbbos0UPRjzUUXDG9/7t/91svvnzC604EilV7oLOfw4V0dGYJPv4vxZYESVIEDIikNfulozlxw15sBfNP+TzfKwpDygpBETzQNbHId/9gfnnk/P5oaK3MRfaZ4wNIaXSvGOO4/vfUGIkHb/snpPWDowF+4x5Sfe97wsK7Vf6wkFYoEPsxTfc1BevG41Jbb0IKDGoF99879LNLd2QklhNcrlLLnpXdEgDkhaIskWKPi+FO4rci1IZ2aLP0PGqeDDiofXxb5zqrZ+ARQ7fgE4+7yI6ZKkFGYNCHeLBnb54nM3xLyMftJhyG/Jgr2L+NKHUBxSyMMrc6cAQaYmp+o22EQOQvn88+jhBW2hTcZfWDlxD/SAG+CJQpK2gaxlC1E99a4b54733qyix8Epo/h+VGPTpHEk3t0QMkPsNTQHddGQlkZ7vQV30TbxXYiARkaJwBx6gNA9upTa1/NRU9WDEwxy9CoAjHwNtbzL107atLj+2u40UReTl+0pO035ibFuIQRl27pzxoEA/BaSqhb7aQgzgAfrBb34X9S25rcQA5w4FwBAucc+x72fcW+ilkJr5E3qt6P/Vh4ASg/qw7dhzLDHAh30Pe9yIbi8BybUvkQ7su1diIIUuMD5fOEEiOlKoowO8itsOS3hh7BDTUdlodwz4Gf0NJgnZBb5FMuR3bSEGmD/iyXjYx3hGQhtHYf9NJgbIZtn1mBNtPn5KXL3NxADnBjqSWDIM79HNLdCfYH76egkBJQYvYVHrVgoxCBUhSjFA3wOaJtkrMcB+pOP6QgNSbXkp1EHjJFuVx4D2J4kg8SCH2Mr3gjgRruOQhz0ehht87GD7oIPGAcVdPnPqLO9n20QMCBcs9lj0Q7Cg/wlxu6ONL7QesW+0fUbzYj/SAAAKUElEQVRYp+glPZjh2fjVtf/n1aiQbsXXRrnoWL6/SccvC99JawdwxT5jXtJ9X/Qlgu8fpBoeN6mSKJ1rbvG/p110qYYXOJAN31Zi0KcTJN3cZTdkmQhR+uZe9k1cWiDKFikOl/TN2xdOAEnhiwW2y76d82NVTQxQlAcPBHdM+Nn3oIb4buqJp3r/H59BJUQsmLff94Co0pYw9x2Pzx3bVc4/9QHljgnXHtzFOxx+jBiacfF9x6c+Zx/A7r768bM07xDhYhXjk45fds9Jawew7TcxIBwQHsL1jnRf9xz7foY25aSfX0gfV9twBJQY9OkESTd3GTGQRIjUbEjqr1D2TVx6SJUtUi5c0jdvXs1PIhC++gru/unnKh+M2Kd0PrCo+R7U0v9jwcO33JDSyBLmvuPRvMlWOf/UBxSNxWfh3cKDArF334OB/w4CNZCKfr+keSsxiCtpzs8bQiq/u+k2s+PnvlIaXkJfkpv+eg//uG43FAElBn06MdKDpYwYSGli9G3bp0MoEh3SdKWHVCwxkESIvBiTRG6KQh00TrJVPhixT1SCREVI/sCibd+DWsKrjIDR+GGlffiOxz+H7SrnLz0gY8+9O0b8DIKE7AV4UAhP16Jd8UjUPZDmrcQgnRjwawBZPwec9P1CgoD0XX01HwElBn06R6nEAMP75TU3eFu8wrUNIaK78Ppi/O40pYdU7MNBCmXwxd8XRuB/d8fm+7nKByP27xsT4egWW5KEk0TOfOP1/U6qsT9IxIDmvWDxYoNa+oSpa0MyUWhfVdm2EgPoHHBfuhji5xgcca9K56TsC0rMOYB4F+FE33jJ0xmzP/3f/iOgxKBPmPdCDB6bv8DghnJvtBU/+FHvt96Qb+JVEQPAJ4kQEU6QHuhuZkXZaZD2A0xCHqx8//hmIwnnkGp1zpXX8n83Ty58ymx78PQu/GO+aUrnMHT8Vc5fekDGksIOkDw/SOJZzBnXX79f0rxjzmMvY5aOX4Z7ETGI+QZedD6qJAbASCLeZXPtBV/9bHUIKDGoDsvCPfVCDLBjSYTokoUy0SENskpiIGkIEE5A/BELLx8nvmnDCxLzqurBCFf30T/8mSiW8+EnLcwxDxTJ6zPIxECqdKnEYOeO+6HsYVl07cd8Az/915eL133VxEAK1ZXNNWZN0P+tDwElBvVh27HnXomBFKfnD1xsh8a8qyQGmKjvG8L6ex1oDj/tzI5FEGPceL9Dzdx5T3bgU/ZD0eIY6jGAkrqo8iHG5hPGFX3bD3HlPvT4PIPCSe65op9Dxl80/9hFPeWb65/u/XtpOqB7Dhcu/reY3qkeg5fIQcjDUgpDwcOFB37Zq6xAkXQNIYyGh3yIuJaP4fzf/6+XhITMle9Ht0cGASUGfcK9V2IgiRDp4QIbIjqk6VZNDHwiRHgGUBSGjxHbUr8HGpvPFj0Yi3ol4IE267ezzeRjTigt54viLWgW5L4kjQHmUtY8BwWR3nv4l7sw4JiEEIOi+DDO+2U33uoOW/w5hRjgM0hNi6n2hzFhbHyu2PaFa8TBVvgHad4xnp9ehiMdP+RhKWX/AE/E86++7c/i0FDfwReK5OdFIga47979maPMzkd+3aDtdMgLmQroNMn3T9vScUL2q//TPwSUGPQJ616JAYZZ5I7GjRciOqTpVk0MJBEiLQhkfTUOaExFtogY0L57sWWLa1EoB4Ri9s1/7EjBw+J49uxrCtX5NN4QYgBsIIqkz7gWqWBnXnql1XTgfxFP/uLMn3irOKY8oPhn8CD73gWXiN0oQaTwLVbKcQdeGF+/X3wOHL82EAMf8eZzQBGhg74zM6+jgW/4eJCH1hqQHtj8vkO1yz2+epL5w51/83oQsAb8+f4HLIkA+ePjo+0Q/VO/rws9XjcCSgy6ManlN1UQA1TeQ+4/3WSu5bUDyiZRNTHA8SQRIh8nT2MsGyP/O1+g+P6q2MZDFWMveknnjx8fi/M6exzgbaa09kf2N3sd9y3vuQslBlB7wwvDj1m2jYeh+5IekEXfXKXPrP6hj9k5Y97S3PkY8cCIaVTljr2Xn6U5tIEY4KGLMBfHMna76BoMIQb8eKjfAT0OnXdYn3eQfyakD0kv51c/Wx0CSgyqw7JwT9KDRbohpZ35Yvm4+XyiOWkf+H0dxKDs4Y2HAuoupLzK9s0XoNBtjCfURdrLwoxF9MeXXy1iHkoMyoihb951EwPfMYt+V1Vr65RrqM3EAPMt0wkU4V52DUrrUFX3XZlHLuV86mfqQ0CJQX3Yduy5KmIguRRDRYc0qDqIAfYtERcsWr24kKtaoDAOEAKkK176h1s63P+EjWTxYEaFt6IF2P0bFmRgAmIhYR5KDDAuxJKxyLrHkX5uCjGAGxrNl1KaD0nnI/b3bScGmO81f/yLgYdLOt++3wP7r/3kvMJrsE5igPt+JApaxV4f+v8vIaDE4CUsat2qihj4RIgxokOapPSQKnIn02eLrERcsGDF5Fy7x+iFGJDbc5ejjrex717i20jNPOS7Pyis7kaLM6r/XXzDTTn5kDCPIQbA5ZI5twRpFzCOqojBHX9/0LbSBami+YVYPJRApprQYW8QiAHOP8SEWx/0haDz8ObdP2ErUYKY4iVdgxIxwHpz/Nm/EPuKFF0DKI99ws9+ZXDP6KtdCCgxaNf5avxoJWKQQl6aPNm/PTTXfG7GWeatH/9MR7YDYu4QgeIhVOe3Yyy2Z112lT0WjkkLNB7cWJDrGgO8Jj+67Cqzz9e/bbtHunFl6Czesvc0W2EP/4f/11f1COBBD7KFrpLjphxU+zUIMSO+9eOaR5dM6BVA+tzrDhoo/A/+NzbFsXqUdI+pCCgxSEVOP+dFQEqrismY8O5Yf6kIKAKKgCLQFwSUGPQF5uE4iFQBEd8qYjImhgMtnaUioAgoAs1EQIlBM89LK0clVWeMzZho5eR10IqAIqAIDAgCSgwG5EQ2YRpSEaDYjIkmzEXHoAgoAorAsCKgxGBYz3zF85Y6tw2a6LBi2HR3ioAioAg0DgElBo07Je0bEBTSR5z2o1yhTEplWNRMr1Od3z60dMSKgCKgCDQbASUGzT4/jR8dUpKQ54xaAZwQYLtfpWYbD5IOUBFQBBSBFiGgxKBFJ2skh4oCQ1NPPNWWNEYHwgcefcw2ddpq2ue97VVBDOBFoMIqIzl2PbYioAgoAopAOAJKDMKxGur/jK08iCIoWtxmqC8ZnbwioAi0FAElBi09cf0edgwxGD/lYNvwpd9j1OMpAoqAIqAI9I6AEoPeMRyKPYQSA22YMhSXg05SEVAEBhgBJQYDfHKrnFoZMUDd9ANO+r55YuFTVR5W96UIKAKKgCLQZwSUGPQZ8LYebvEzz5j9v/E9wxv2gAygg+Dhp51p0FRIX4qAIqAIKALtR0CJQfvPoc5AEVAEFAFFQBGoDAElBpVBqTtSBBQBRUARUATaj4ASg/afQ52BIqAIKAKKgCJQGQJKDCqDUnekCCgCioAioAi0HwElBu0/hzoDRUARUAQUAUWgMgT+P8J8ztlFzGszAAAAAElFTkSuQmCC;shadow=1;" vertex="1" parent="1">
          <mxGeometry x="90" y="850" width="96.59" height="80" as="geometry" />
        </mxCell>
        <mxCell id="voBeTEnPB6DL6gdvr357-92" value="" style="rounded=1;whiteSpace=wrap;html=1;glass=0;shadow=1;" vertex="1" parent="1">
          <mxGeometry x="208" y="742.1" width="192" height="157.9" as="geometry" />
        </mxCell>
        <mxCell id="voBeTEnPB6DL6gdvr357-80" value="阿里云OSS" style="verticalLabelPosition=bottom;html=1;verticalAlign=top;align=center;strokeColor=none;fillColor=#00BEF2;shape=mxgraph.azure.cloud_service_package_file;" vertex="1" parent="1">
          <mxGeometry x="234.75" y="745.48" width="44.5" height="50" as="geometry" />
        </mxCell>
        <mxCell id="voBeTEnPB6DL6gdvr357-60" value="Redis缓存服务" style="image;sketch=0;aspect=fixed;html=1;points=[];align=center;fontSize=12;image=img/lib/mscae/Cache_Redis_Product.svg;" vertex="1" parent="1">
          <mxGeometry x="310.57" y="758.86" width="57.88" height="48.62" as="geometry" />
        </mxCell>
        <mxCell id="voBeTEnPB6DL6gdvr357-61" value="MySQL数据库" style="sketch=0;outlineConnect=0;fontColor=#232F3E;gradientColor=none;fillColor=#C925D1;strokeColor=none;dashed=0;verticalLabelPosition=bottom;verticalAlign=top;align=center;html=1;fontSize=12;fontStyle=0;aspect=fixed;pointerEvents=1;shape=mxgraph.aws4.rds_mysql_instance;" vertex="1" parent="1">
          <mxGeometry x="234.75" y="820" width="48.5" height="48.5" as="geometry" />
        </mxCell>
        <mxCell id="voBeTEnPB6DL6gdvr357-95" value="" style="shape=flexArrow;endArrow=classic;startArrow=classic;html=1;rounded=0;exitX=1;exitY=0.5;exitDx=0;exitDy=0;" edge="1" parent="1">
          <mxGeometry width="100" height="100" relative="1" as="geometry">
            <mxPoint x="186.5899999999997" y="880.43" as="sourcePoint" />
            <mxPoint x="234.75" y="850.0016061317496" as="targetPoint" />
          </mxGeometry>
        </mxCell>
        <mxCell id="voBeTEnPB6DL6gdvr357-104" value="" style="endArrow=classic;startArrow=classic;html=1;rounded=0;entryX=0.5;entryY=1;entryDx=0;entryDy=0;exitX=0.511;exitY=-0.076;exitDx=0;exitDy=0;exitPerimeter=0;dashed=1;" edge="1" parent="1" source="voBeTEnPB6DL6gdvr357-60" target="voBeTEnPB6DL6gdvr357-48">
          <mxGeometry width="50" height="50" relative="1" as="geometry">
            <mxPoint x="340" y="760" as="sourcePoint" />
            <mxPoint x="326.8000000000007" y="654.43" as="targetPoint" />
          </mxGeometry>
        </mxCell>
        <mxCell id="voBeTEnPB6DL6gdvr357-120" value="" style="rounded=1;whiteSpace=wrap;html=1;" vertex="1" parent="1">
          <mxGeometry x="410" y="690" width="120" height="210" as="geometry" />
        </mxCell>
        <mxCell id="voBeTEnPB6DL6gdvr357-96" value="" style="endArrow=classic;startArrow=classic;html=1;rounded=0;exitX=0.086;exitY=0.999;exitDx=0;exitDy=0;exitPerimeter=0;" edge="1" parent="1" source="voBeTEnPB6DL6gdvr357-62" target="voBeTEnPB6DL6gdvr357-85">
          <mxGeometry width="50" height="50" relative="1" as="geometry">
            <mxPoint x="40" y="950" as="sourcePoint" />
            <mxPoint x="290" y="760" as="targetPoint" />
            <Array as="points">
              <mxPoint x="38" y="890" />
            </Array>
          </mxGeometry>
        </mxCell>
        <mxCell id="voBeTEnPB6DL6gdvr357-102" value="" style="shape=flexArrow;endArrow=classic;startArrow=classic;html=1;rounded=0;entryX=0.07;entryY=0.472;entryDx=0;entryDy=0;entryPerimeter=0;" edge="1" parent="1" target="voBeTEnPB6DL6gdvr357-58">
          <mxGeometry width="100" height="100" relative="1" as="geometry">
            <mxPoint x="23" y="310" as="sourcePoint" />
            <mxPoint x="22.995000000000346" y="298.7420000000001" as="targetPoint" />
          </mxGeometry>
        </mxCell>
        <mxCell id="voBeTEnPB6DL6gdvr357-103" value="" style="endArrow=classic;startArrow=classic;html=1;rounded=0;entryX=1;entryY=0.5;entryDx=0;entryDy=0;exitX=0;exitY=0.26;exitDx=0;exitDy=0;exitPerimeter=0;dashed=1;" edge="1" parent="1" source="voBeTEnPB6DL6gdvr357-80">
          <mxGeometry width="50" height="50" relative="1" as="geometry">
            <mxPoint x="251.0345000000002" y="779.73" as="sourcePoint" />
            <mxPoint x="196" y="650" as="targetPoint" />
          </mxGeometry>
        </mxCell>
        <mxCell id="voBeTEnPB6DL6gdvr357-105" value="" style="endArrow=classic;startArrow=classic;html=1;rounded=0;entryX=0.5;entryY=1;entryDx=0;entryDy=0;exitX=0.021;exitY=0.091;exitDx=0;exitDy=0;exitPerimeter=0;dashed=1;" edge="1" parent="1" source="voBeTEnPB6DL6gdvr357-60" target="voBeTEnPB6DL6gdvr357-77">
          <mxGeometry width="50" height="50" relative="1" as="geometry">
            <mxPoint x="326.7287600000004" y="765.5245" as="sourcePoint" />
            <mxPoint x="256.77" y="713.0000000000002" as="targetPoint" />
          </mxGeometry>
        </mxCell>
        <mxCell id="voBeTEnPB6DL6gdvr357-111" value="数据存储" style="text;html=1;align=center;verticalAlign=middle;resizable=0;points=[];autosize=1;strokeColor=none;fillColor=none;fontStyle=3" vertex="1" parent="1">
          <mxGeometry x="310.57" y="850" width="70" height="30" as="geometry" />
        </mxCell>
        <mxCell id="voBeTEnPB6DL6gdvr357-112" value="" style="sketch=0;points=[[0,0,0],[0.25,0,0],[0.5,0,0],[0.75,0,0],[1,0,0],[0,1,0],[0.25,1,0],[0.5,1,0],[0.75,1,0],[1,1,0],[0,0.25,0],[0,0.5,0],[0,0.75,0],[1,0.25,0],[1,0.5,0],[1,0.75,0]];outlineConnect=0;fontColor=#232F3E;fillColor=#01A88D;strokeColor=#ffffff;dashed=0;verticalLabelPosition=bottom;verticalAlign=top;align=center;html=1;fontSize=12;fontStyle=0;aspect=fixed;shape=mxgraph.aws4.resourceIcon;resIcon=mxgraph.aws4.augmented_ai;shadow=1;" vertex="1" parent="1">
          <mxGeometry x="425" y="787.19" width="47.5" height="47.5" as="geometry" />
        </mxCell>
        <mxCell id="voBeTEnPB6DL6gdvr357-114" value="" style="endArrow=classic;startArrow=classic;html=1;rounded=0;exitX=0.158;exitY=-0.006;exitDx=0;exitDy=0;exitPerimeter=0;dashed=1;" edge="1" parent="1" source="voBeTEnPB6DL6gdvr357-112">
          <mxGeometry width="50" height="50" relative="1" as="geometry">
            <mxPoint x="480" y="810" as="sourcePoint" />
            <mxPoint x="270" y="610" as="targetPoint" />
            <Array as="points">
              <mxPoint x="430" y="600" />
              <mxPoint x="270" y="600" />
            </Array>
          </mxGeometry>
        </mxCell>
        <mxCell id="voBeTEnPB6DL6gdvr357-117" value="消息通知" style="text;html=1;align=center;verticalAlign=middle;resizable=0;points=[];autosize=1;strokeColor=none;fillColor=none;fontStyle=0" vertex="1" parent="1">
          <mxGeometry x="446" y="655.5" width="70" height="30" as="geometry" />
        </mxCell>
        <mxCell id="voBeTEnPB6DL6gdvr357-118" value="讯飞星火AI" style="text;html=1;align=center;verticalAlign=middle;resizable=0;points=[];autosize=1;strokeColor=none;fillColor=none;fontStyle=0" vertex="1" parent="1">
          <mxGeometry x="417" y="840" width="80" height="30" as="geometry" />
        </mxCell>
        <mxCell id="voBeTEnPB6DL6gdvr357-119" value="" style="sketch=0;points=[[0,0,0],[0.25,0,0],[0.5,0,0],[0.75,0,0],[1,0,0],[0,1,0],[0.25,1,0],[0.5,1,0],[0.75,1,0],[1,1,0],[0,0.25,0],[0,0.5,0],[0,0.75,0],[1,0.25,0],[1,0.5,0],[1,0.75,0]];outlineConnect=0;fontColor=#232F3E;gradientColor=#4D72F3;gradientDirection=north;fillColor=#3334B9;strokeColor=#ffffff;dashed=0;verticalLabelPosition=bottom;verticalAlign=top;align=center;html=1;fontSize=12;fontStyle=0;aspect=fixed;shape=mxgraph.aws4.resourceIcon;resIcon=mxgraph.aws4.simple_email_service;" vertex="1" parent="1">
          <mxGeometry x="449" y="707.48" width="48" height="48" as="geometry" />
        </mxCell>
        <mxCell id="voBeTEnPB6DL6gdvr357-53" value="WebSocket" style="rounded=1;whiteSpace=wrap;html=1;fillColor=#60a917;strokeColor=#2D7600;fontColor=#ffffff;shadow=1;glass=0;dashed=1;dashPattern=12 12;" vertex="1" parent="1">
          <mxGeometry x="435" y="613" width="92" height="42.5" as="geometry" />
        </mxCell>
        <mxCell id="voBeTEnPB6DL6gdvr357-121" value="外部服务" style="text;html=1;align=center;verticalAlign=middle;resizable=0;points=[];autosize=1;strokeColor=none;fillColor=none;fontStyle=3" vertex="1" parent="1">
          <mxGeometry x="460" y="868.5" width="70" height="30" as="geometry" />
        </mxCell>
        <mxCell id="voBeTEnPB6DL6gdvr357-122" value="腾讯邮件服务" style="text;html=1;align=center;verticalAlign=middle;resizable=0;points=[];autosize=1;strokeColor=none;fillColor=none;fontStyle=0" vertex="1" parent="1">
          <mxGeometry x="435" y="755.48" width="100" height="30" as="geometry" />
        </mxCell>
        <mxCell id="voBeTEnPB6DL6gdvr357-123" style="edgeStyle=orthogonalEdgeStyle;rounded=0;orthogonalLoop=1;jettySize=auto;html=1;entryX=0;entryY=0.5;entryDx=0;entryDy=0;entryPerimeter=0;dashed=1;" edge="1" parent="1" source="voBeTEnPB6DL6gdvr357-52" target="voBeTEnPB6DL6gdvr357-119">
          <mxGeometry relative="1" as="geometry" />
        </mxCell>
        <mxCell id="voBeTEnPB6DL6gdvr357-127" style="edgeStyle=orthogonalEdgeStyle;rounded=0;orthogonalLoop=1;jettySize=auto;html=1;entryX=0.945;entryY=1;entryDx=0;entryDy=0;entryPerimeter=0;" edge="1" parent="1" source="voBeTEnPB6DL6gdvr357-53" target="voBeTEnPB6DL6gdvr357-18">
          <mxGeometry relative="1" as="geometry" />
        </mxCell>
        <mxCell id="voBeTEnPB6DL6gdvr357-129" style="edgeStyle=orthogonalEdgeStyle;rounded=0;orthogonalLoop=1;jettySize=auto;html=1;entryX=0.25;entryY=0;entryDx=0;entryDy=0;" edge="1" parent="1">
          <mxGeometry relative="1" as="geometry">
            <mxPoint x="167" y="490" as="sourcePoint" />
            <mxPoint x="441" y="613" as="targetPoint" />
            <Array as="points">
              <mxPoint x="167" y="530" />
              <mxPoint x="441" y="530" />
            </Array>
          </mxGeometry>
        </mxCell>
      </root>
    </mxGraphModel>
  </diagram>
</mxfile>
